<svg xmlns="http://www.w3.org/2000/svg" xmlns:xlink="http://www.w3.org/1999/xlink" width="242.377" height="165.71" viewBox="0 0 242.377 165.71">
  <defs>
    <clipPath id="clip-path">
      <rect id="사각형_2" data-name="사각형 2" width="242.377" height="165.71" fill="none"/>
    </clipPath>
  </defs>
  <g id="그룹_2" data-name="그룹 2" transform="translate(0 0)">
    <g id="그룹_1" data-name="그룹 1" transform="translate(0 0)" clip-path="url(#clip-path)">
      <path id="패스_1" data-name="패스 1" d="M229.28,74.338c0,40.885-50.85,74.035-113.574,74.035S2.136,115.223,2.136,74.338,52.984.3,115.706.3,229.28,33.447,229.28,74.338" transform="translate(2.103 0.301)" fill="#fff" fill-rule="evenodd"/>
      <path id="패스_2" data-name="패스 2" d="M229.28,74.338c0,40.885-50.85,74.035-113.574,74.035S2.136,115.223,2.136,74.338,52.984.3,115.706.3,229.28,33.447,229.28,74.338Z" transform="translate(2.103 0.301)" fill="none" stroke="#84b22f" stroke-width="0.61"/>
      <path id="패스_3" data-name="패스 3" d="M81.92,34.685a5.068,5.068,0,1,0-5.186-5.069,5.124,5.124,0,0,0,5.186,5.069" transform="translate(75.56 24.175)" fill="#8abb2a" fill-rule="evenodd"/>
      <path id="패스_4" data-name="패스 4" d="M97.283,34.745c1.1,1.623,2.147,3.176,3,4.458A13.515,13.515,0,1,1,80.959,51.4c0-.282.02-.562.044-.834h-.718c-.131.222-1.151,1.874-2.409,3.92A16.894,16.894,0,1,0,97.283,34.745" transform="translate(76.683 34.213)" fill="#8abb2a" fill-rule="evenodd"/>
      <path id="패스_5" data-name="패스 5" d="M78.112,68.066l8-13h17.332c2,0,6.915-3.42,4.414-7.337,0,0-10.916-16.332-11.831-17.249a5.358,5.358,0,0,0-6.252-.089C87.811,31.7,83.7,40.967,83.7,40.967s-4.67.089-6.093,0c-1.407-.081-1.83,4.751-.077,4.751h8.5L89.2,40.227l6.581,10.082H82.361l-10.5,17.757c-.593,1.086-.5,2.648,1.562,2.648s3.3-.887,4.686-2.648" transform="translate(70.453 28.986)" fill="#8abb2a" fill-rule="evenodd"/>
      <rect id="사각형_1" data-name="사각형 1" width="15.102" height="4.19" transform="translate(142.293 72.116)" fill="#8abb2a"/>
      <path id="패스_6" data-name="패스 6" d="M77.712,42.681l-1.627,1.147-8.8-12.559L68.92,30.12Z" transform="translate(66.255 29.659)" fill="#8abb2a" fill-rule="evenodd"/>
      <path id="패스_7" data-name="패스 7" d="M58.281,100.762c13.3,5.007,29.665,7.935,47.123,7.935,46.031,0,83.387-20.266,83.387-45.42,0-12.817-11.837-29.544-42-29.544-21.852,0-40.9,9.646-40.9,21.49a9.127,9.127,0,0,0,2.81,5.98,13.959,13.959,0,0,1,3.17,9.4c0,14.528-21.609,26.25-48.228,26.25-17.582,0-33.694-4.884-41.633-12.815A28.074,28.074,0,0,1,13.59,63.277C13.59,35.563,54.739,13.1,105.4,13.1c50.788,0,91.939,22.465,91.939,50.179S156.192,113.46,105.4,113.46c-20.024,0-38.579-3.543-53.6-9.4Z" transform="translate(13.382 12.898)" fill="#84b22f" fill-rule="evenodd"/>
      <path id="패스_8" data-name="패스 8" d="M57.974,98.692c13.307,5.007,29.667,7.939,47.125,7.939,46.027,0,83.395-20.27,83.395-45.424,0-12.817-11.847-29.542-42-29.542-21.852,0-40.9,9.642-40.9,21.488a9.151,9.151,0,0,0,2.81,5.982,13.968,13.968,0,0,1,3.174,9.4c0,14.524-21.611,26.25-48.228,26.25-17.582,0-33.7-4.884-41.635-12.823a28.057,28.057,0,0,1-8.421-20.758c0-27.714,41.143-50.181,91.812-50.181,50.79,0,91.935,22.467,91.935,50.181S155.889,111.39,105.1,111.39c-20.026,0-38.58-3.535-53.6-9.4Z" transform="translate(13.084 10.857)" fill="#38772f" fill-rule="evenodd"/>
      <path id="패스_9" data-name="패스 9" d="M26.825,20.865a32.505,32.505,0,0,0-2.384-4.783l-5.027,3.009-.921-1.54,6.927-4.142.657,1.1A34.489,34.489,0,0,1,28.805,19.9Zm-.042,2.314c1.274-.822,2.538-1.693,3.676-2.574l.935,1.33a59.673,59.673,0,0,1-7.756,5.377l-1.121-1.481c.742-.443,1.562-.933,2.4-1.453l-2.384-3.989,1.9-1.135Zm6.942-7-1.814,1.084,3.86,6.446L33.845,24.87l-8.078-13.5,1.927-1.155,3.257,5.442,1.81-1.086Z" transform="translate(18.21 10.057)" fill="#39772f"/>
      <path id="패스_10" data-name="패스 10" d="M36.252,10.251l-8.616,3.307L27,11.9l3.245-1.242-.532-1.373,2.118-.814.53,1.369,3.259-1.248ZM34.2,17.777c-2.1.8-4.017.274-4.634-1.334s.46-3.273,2.556-4.077c2.114-.812,4.019-.278,4.63,1.312.619,1.614-.437,3.279-2.552,4.1m-.613-1.6c.941-.363,1.451-.974,1.161-1.729-.282-.73-1.076-.847-2.012-.486-.953.367-1.449.976-1.165,1.709.284.752,1.064.871,2.016.506m-1.55,3.561L41.8,15.984l1.881,4.9-2.1.8-1.236-3.2-7.659,2.943Zm10.052-8.784-1.941.744,1.415,3.682-2.1.806-3.539-9.2,2.1-.806,1.453,3.777,1.939-.744Z" transform="translate(26.586 6.088)" fill="#39772f"/>
      <path id="패스_11" data-name="패스 11" d="M44.132,6.166c1.1,4.686.429,8.88-4.374,12.781l-1.55-1.459c3.451-2.794,4.583-5.591,4.1-9.056l-5.087,1.2L36.81,7.883Zm4.162-2.671,3.6,15.316-2.207.522L46.09,4.015Z" transform="translate(36.247 3.442)" fill="#39772f"/>
      <path id="패스_12" data-name="패스 12" d="M54.6,10.293l.111,1,4.231-.482.464,4.051-8.528.978.1.881L59.911,15.7l.191,1.683L48.949,18.656l-.466-4.108,8.544-.976-.1-.849-8.564.978-.189-1.663,4.295-.49-.111-1-5.91.673-.2-1.762,14.079-1.61.2,1.768Zm4.223-2.923c-2.723.018-4.769-.782-5.914-2.1-.822,1.538-2.65,2.779-5.305,3.376l-.919-1.594c3.461-.74,4.978-2.519,4.8-4.025l-.034-.286,2.3-.268.036.292c.171,1.506,2.042,2.894,5.585,2.834Z" transform="translate(45.546 2.439)" fill="#39772f"/>
      <path id="패스_13" data-name="패스 13" d="M64.169,10.862a5.937,5.937,0,0,1-3.592-3.025,6.12,6.12,0,0,1-3.709,3.521L55.708,9.594a5.246,5.246,0,0,0,3.654-4.868l-3.088.024L56.26,2.941l8.425-.077.022,1.81L61.654,4.7a4.827,4.827,0,0,0,3.582,4.394Zm4.853,3.747c.016,1.915-2.022,3.043-5.339,3.074-3.334.032-5.392-1.062-5.408-2.975s2.016-3.041,5.353-3.072c3.318-.03,5.369,1.062,5.394,2.973m-2.255.02c-.006-.883-1.08-1.306-3.122-1.284-2.06.016-3.128.454-3.122,1.342s1.086,1.306,3.144,1.292c2.038-.024,3.112-.46,3.1-1.35M66.622,5.7l-.04-3.791,2.247-.02.089,9.36-2.249.022-.03-3.743-2.354.022-.016-1.83Z" transform="translate(54.855 1.858)" fill="#39772f"/>
      <path id="패스_14" data-name="패스 14" d="M79.216,14.9l-.183,1.814L64.9,15.295l.187-1.818,5.922.6L71.3,11.2l-4.434-.443.826-8.175,2.221.222-.244,2.433,6.675.673.242-2.433,2.2.222-.826,8.175-4.424-.447L73.25,14.3ZM69.268,9.192l6.671.675.226-2.193L69.489,7Z" transform="translate(63.911 2.542)" fill="#39772f"/>
      <path id="패스_15" data-name="패스 15" d="M88.613,13.748l-.377,1.721-13.849-3.05.375-1.719,5.819,1.282.2-.955-4.084-.9,1.445-6.573L88.687,5.879l-.369,1.667L79.96,5.706l-.179.8,8.012,1.76-.351,1.6L79.43,8.106l-.183.836,8.481,1.866-.367,1.667-4.376-.961-.21.949ZM85.9,18.315c-.359,1.631-2.5,2.086-5.877,1.342-3.36-.736-5.113-2.05-4.751-3.684.367-1.655,2.5-2.088,5.861-1.35,3.376.74,5.132,2.036,4.767,3.692m-2.209-.492c.135-.631-.786-1.111-2.916-1.582-2.112-.464-3.152-.419-3.291.222s.78,1.131,2.888,1.592c2.132.472,3.176.4,3.318-.232" transform="translate(73.249 3.503)" fill="#39772f"/>
      <path id="패스_16" data-name="패스 16" d="M94.56,21.9l-.609,1.685-10.18-3.713L85.516,15.1l2.108.766L86.5,18.953Zm-3.086-5.982a6.024,6.024,0,0,1-2.286-4.271,6.315,6.315,0,0,1-4.737,1.995L84,11.566a5.339,5.339,0,0,0,5.281-3.58L89.8,6.537l2.147.786-.526,1.443a4.954,4.954,0,0,0,1.741,5.855Zm3.469,3.795-2.124-.778L96.753,8.166l2.128.778Z" transform="translate(82.489 6.437)" fill="#39772f"/>
      <path id="패스_17" data-name="패스 17" d="M104.391,24.989l-5.246-2.975-2.417,4.263-1.955-1.113L97.2,20.9l-5.152-2.927.885-1.556,12.345,7.01Zm.155-3.68-9.477-5.384L98.51,9.866l1.943,1.1-.885,1.556,5.609,3.191.889-1.562,1.919,1.094Zm-.236-4.069L98.7,14.056l-.8,1.411,5.609,3.191Z" transform="translate(90.635 9.715)" fill="#39772f"/>
      <path id="패스_18" data-name="패스 18" d="M53.4,64.85H45.946L44.89,40.369,29.1,64.85H21.635L21.567,24.5H30.89L30.3,49.947,46.325,24.5h6.692l.7,25.452L68.513,24.5h9.32Z" transform="translate(21.237 24.12)" fill="#fff" fill-rule="evenodd"/>
      <path id="패스_19" data-name="패스 19" d="M65.831,65.07l.145-7.167H54.7l-3.95,7.167h-10.8L64.273,24.606H74.935l1.7,40.464Zm.691-28.54L58.216,51.255h8.129Z" transform="translate(39.336 24.23)" fill="#fff" fill-rule="evenodd"/>
      <path id="패스_20" data-name="패스 20" d="M4.991,68.83.5,63.227a1.723,1.723,0,0,1-.246-.385.562.562,0,0,1-.048-.314.613.613,0,0,1,.153-.3A2.254,2.254,0,0,1,.712,61.9l1.84-1.477a.239.239,0,0,1,.379.034l.808,1.008a.242.242,0,0,1-.044.387l-1.244,1a.181.181,0,0,0-.038.286L6.2,67.857a.384.384,0,0,1,.081.179c.012.067-.024.131-.1.195l-.822.659q-.152.122-.226.071a.58.58,0,0,1-.141-.131m-.6-7.641a3.383,3.383,0,0,1-.56-.986,3.006,3.006,0,0,1-.189-1.03,2.4,2.4,0,0,1,.2-.967,2.06,2.06,0,0,1,.613-.786A2,2,0,0,1,5.354,57a2.362,2.362,0,0,1,.986.012,2.977,2.977,0,0,1,.971.411A3.639,3.639,0,0,1,8.72,59.18a3.053,3.053,0,0,1,.191,1.038,2.383,2.383,0,0,1-.2.965,2.058,2.058,0,0,1-.6.78,2.11,2.11,0,0,1-.9.427,2.362,2.362,0,0,1-.986-.012,2.982,2.982,0,0,1-.971-.413,3.563,3.563,0,0,1-.851-.776m2.679-2.132a1.231,1.231,0,0,0-.794-.5.936.936,0,0,0-.752.191.993.993,0,0,0-.369.716,1.222,1.222,0,0,0,.3.887,1.211,1.211,0,0,0,.8.488.983.983,0,0,0,.778-.2.943.943,0,0,0,.351-.695,1.243,1.243,0,0,0-.32-.883m4.186,6.486-1-1.242L7.375,66.617a.336.336,0,0,1-.193.091q-.071,0-.161-.113l-.834-1.038a.3.3,0,0,1-.083-.195.282.282,0,0,1,.125-.177l7.5-6.01a.234.234,0,0,1,.371.042l.832,1.036a.224.224,0,0,1-.056.351L11.495,63.31l1,1.242a.629.629,0,0,1,.093.163c.02.054-.022.119-.123.2l-.845.677a.226.226,0,0,1-.2.069.352.352,0,0,1-.157-.119m-.687-5L6.255,55.155a.258.258,0,0,1,.065-.407l.671-.538a.257.257,0,0,1,.409.044l4.307,5.375a.256.256,0,0,1-.046.409l-.681.546a.256.256,0,0,1-.409-.044m.5-2.564L8.935,55.3a.364.364,0,0,1-.081-.181c-.01-.064.034-.137.135-.218l.693-.554c.1-.081.183-.111.242-.085a.4.4,0,0,1,.159.117l2.141,2.673a.263.263,0,0,1-.058.417l-.671.538a.4.4,0,0,1-.212.1c-.06,0-.129-.04-.206-.137" transform="translate(0.197 53.301)" fill="#fff"/>
      <path id="패스_21" data-name="패스 21" d="M4.991,68.83.5,63.227a1.723,1.723,0,0,1-.246-.385.562.562,0,0,1-.048-.314.613.613,0,0,1,.153-.3A2.254,2.254,0,0,1,.712,61.9l1.84-1.477a.239.239,0,0,1,.379.034l.808,1.008a.242.242,0,0,1-.044.387l-1.244,1a.181.181,0,0,0-.038.286L6.2,67.857a.384.384,0,0,1,.081.179c.012.067-.024.131-.1.195l-.822.659q-.152.122-.226.071A.58.58,0,0,1,4.991,68.83Zm-.6-7.641a3.383,3.383,0,0,1-.56-.986,3.006,3.006,0,0,1-.189-1.03,2.4,2.4,0,0,1,.2-.967,2.06,2.06,0,0,1,.613-.786A2,2,0,0,1,5.354,57a2.362,2.362,0,0,1,.986.012,2.977,2.977,0,0,1,.971.411A3.639,3.639,0,0,1,8.72,59.18a3.053,3.053,0,0,1,.191,1.038,2.383,2.383,0,0,1-.2.965,2.058,2.058,0,0,1-.6.78,2.11,2.11,0,0,1-.9.427,2.362,2.362,0,0,1-.986-.012,2.982,2.982,0,0,1-.971-.413A3.563,3.563,0,0,1,4.394,61.189Zm2.679-2.132a1.231,1.231,0,0,0-.794-.5.936.936,0,0,0-.752.191.993.993,0,0,0-.369.716,1.222,1.222,0,0,0,.3.887,1.211,1.211,0,0,0,.8.488.983.983,0,0,0,.778-.2.943.943,0,0,0,.351-.695A1.243,1.243,0,0,0,7.073,59.057Zm4.186,6.486-1-1.242L7.375,66.617a.336.336,0,0,1-.193.091q-.071,0-.161-.113l-.834-1.038a.3.3,0,0,1-.083-.195.282.282,0,0,1,.125-.177l7.5-6.01a.234.234,0,0,1,.371.042l.832,1.036a.224.224,0,0,1-.056.351L11.495,63.31l1,1.242a.629.629,0,0,1,.093.163c.02.054-.022.119-.123.2l-.845.677a.226.226,0,0,1-.2.069A.352.352,0,0,1,11.259,65.543Zm-.687-5L6.255,55.155a.258.258,0,0,1,.065-.407l.671-.538a.257.257,0,0,1,.409.044l4.307,5.375a.256.256,0,0,1-.046.409l-.681.546A.256.256,0,0,1,10.572,60.54Zm.5-2.564L8.935,55.3a.364.364,0,0,1-.081-.181c-.01-.064.034-.137.135-.218l.693-.554c.1-.081.183-.111.242-.085a.4.4,0,0,1,.159.117l2.141,2.673a.263.263,0,0,1-.058.417l-.671.538a.4.4,0,0,1-.212.1C11.223,58.116,11.154,58.073,11.076,57.975Z" transform="translate(0.197 53.301)" fill="none" stroke="#1a1818" stroke-width="0.4"/>
      <path id="패스_22" data-name="패스 22" d="M14.8,69.654l-3.455-3.247-1.207,1.284,1.661,1.56a1.755,1.755,0,0,1,.308.355.523.523,0,0,1,.083.316.766.766,0,0,1-.123.333,2.759,2.759,0,0,1-.308.385L9.186,73.379a.236.236,0,0,1-.371.032l-.941-.885a.252.252,0,0,1-.022-.4l2.06-2.193c.1-.1.1-.193.01-.278L5.409,65.415a.391.391,0,0,1-.105-.157c-.02-.056.006-.119.073-.194l.75-.8c.083-.089.153-.121.206-.1a.459.459,0,0,1,.157.1l2.314,2.173,1.2-1.284L6.555,61.908a.27.27,0,0,1-.109-.191.328.328,0,0,1,.107-.193l.685-.728a.519.519,0,0,1,.191-.145c.05-.016.121.02.21.1l5.74,5.392c.165-.123.349-.272.556-.447s.409-.347.6-.518.371-.327.524-.468.256-.244.314-.308a.615.615,0,0,0,.165-.252c.016-.067-.036-.159-.159-.272l-4.339-4.077a.5.5,0,0,1-.125-.167c-.02-.048.012-.117.093-.2l.74-.79c.071-.073.133-.105.187-.091a.428.428,0,0,1,.177.109l5.232,4.914a.992.992,0,0,1,.363.637,1.011,1.011,0,0,1-.345.693q-.5.536-1.211,1.193a16.1,16.1,0,0,1-1.508,1.238L15.883,68.5a.257.257,0,0,1-.006.411l-.685.726c-.075.081-.145.119-.208.109a.348.348,0,0,1-.183-.1" transform="translate(5.217 57.655)" fill="#fff"/>
      <path id="패스_23" data-name="패스 23" d="M14.8,69.654l-3.455-3.247-1.207,1.284,1.661,1.56a1.755,1.755,0,0,1,.308.355.523.523,0,0,1,.083.316.766.766,0,0,1-.123.333,2.759,2.759,0,0,1-.308.385L9.186,73.379a.236.236,0,0,1-.371.032l-.941-.885a.252.252,0,0,1-.022-.4l2.06-2.193c.1-.1.1-.193.01-.278L5.409,65.415a.391.391,0,0,1-.105-.157c-.02-.056.006-.119.073-.194l.75-.8c.083-.089.153-.121.206-.1a.459.459,0,0,1,.157.1l2.314,2.173,1.2-1.284L6.555,61.908a.27.27,0,0,1-.109-.191.328.328,0,0,1,.107-.193l.685-.728a.519.519,0,0,1,.191-.145c.05-.016.121.02.21.1l5.74,5.392c.165-.123.349-.272.556-.447s.409-.347.6-.518.371-.327.524-.468.256-.244.314-.308a.615.615,0,0,0,.165-.252c.016-.067-.036-.159-.159-.272l-4.339-4.077a.5.5,0,0,1-.125-.167c-.02-.048.012-.117.093-.2l.74-.79c.071-.073.133-.105.187-.091a.428.428,0,0,1,.177.109l5.232,4.914a.992.992,0,0,1,.363.637,1.011,1.011,0,0,1-.345.693q-.5.536-1.211,1.193a16.1,16.1,0,0,1-1.508,1.238L15.883,68.5a.257.257,0,0,1-.006.411l-.685.726c-.075.081-.145.119-.208.109A.348.348,0,0,1,14.8,69.654Z" transform="translate(5.217 57.655)" fill="none" stroke="#1a1818" stroke-width="0.4"/>
      <path id="패스_24" data-name="패스 24" d="M15.359,77.731l-5.315-3.908a2.817,2.817,0,0,1-.389-.337.655.655,0,0,1-.163-.3.584.584,0,0,1,.05-.331,2.21,2.21,0,0,1,.268-.441l1.947-2.648a.227.227,0,0,1,.357-.064l1.06.78a.3.3,0,0,1,.133.165.285.285,0,0,1-.075.2l-.411.558,4.009,2.949.445-.6c.109-.151.23-.175.365-.075l1.084.8c.127.093.135.214.026.363l-2,2.727a1.131,1.131,0,0,1-.6.49,1.174,1.174,0,0,1-.788-.324M13.444,69.87l-1-.736c-.143-.1-.153-.238-.032-.4l.937-1.272q-.905-.613-1.814-1.336c-.085-.062-.127-.121-.123-.177a.407.407,0,0,1,.093-.206l.445-.6c.069-.1.131-.151.181-.159a.262.262,0,0,1,.193.071q1.355,1.048,2.556,1.828c.8.518,1.6,1,2.407,1.427.109.06.167.111.169.159a.436.436,0,0,1-.065.21l-.363.7c-.062.083-.115.119-.165.111a.709.709,0,0,1-.195-.067q-.464-.217-.907-.466t-.913-.528l-1,1.365a.261.261,0,0,1-.4.081M15.992,75.5l-4.011-2.951-.351.48a.113.113,0,0,0,.032.179L15.458,76a.114.114,0,0,0,.181-.02Zm-.923-8.927a3.647,3.647,0,0,1-.764-.748,3.066,3.066,0,0,1-.466-.879,2.178,2.178,0,0,1-.105-.9,1.648,1.648,0,0,1,.324-.828,1.73,1.73,0,0,1,.709-.574,2.187,2.187,0,0,1,.891-.179,2.923,2.923,0,0,1,.976.185,3.705,3.705,0,0,1,.951.51,3.657,3.657,0,0,1,.774.76,2.889,2.889,0,0,1,.46.871,2.122,2.122,0,0,1,.091.9,1.76,1.76,0,0,1-.343.842,1.672,1.672,0,0,1-.689.56,2.123,2.123,0,0,1-.883.177,2.914,2.914,0,0,1-.971-.181,3.575,3.575,0,0,1-.955-.514m1.967,5.906-.976-.716a.461.461,0,0,1-.133-.143q-.039-.068.077-.226l.131-.179-1.155-.849a.31.31,0,0,1-.131-.157c-.01-.048.018-.115.085-.2l.46-.625c.075-.105.137-.153.183-.141a.5.5,0,0,1,.165.087l1.157.851,3.426-4.658a.233.233,0,0,1,.369-.056l.976.716a.286.286,0,0,1,.127.163.31.31,0,0,1-.081.2l-4.323,5.875c-.075.105-.137.155-.179.153a.392.392,0,0,1-.179-.089M16.8,64.213a1.25,1.25,0,0,0-.83-.294.754.754,0,0,0-.568.282.6.6,0,0,0-.1.276.931.931,0,0,0,.02.351,1.1,1.1,0,0,0,.167.371,1.414,1.414,0,0,0,.337.343,1.335,1.335,0,0,0,.437.226,1.214,1.214,0,0,0,.411.054.856.856,0,0,0,.341-.083.688.688,0,0,0,.226-.187.749.749,0,0,0,.1-.625,1.259,1.259,0,0,0-.538-.714m2.233,9.836-1.04-.766a.327.327,0,0,1-.135-.149c-.012-.044.02-.117.1-.22l4.487-6.1a.308.308,0,0,1,.165-.135.276.276,0,0,1,.193.071l1.04.766a.252.252,0,0,1,.121.157.338.338,0,0,1-.087.2l-4.485,6.1c-.077.105-.137.159-.177.163a.3.3,0,0,1-.179-.079" transform="translate(9.34 61.503)" fill="#fff"/>
      <path id="패스_25" data-name="패스 25" d="M15.359,77.731l-5.315-3.908a2.817,2.817,0,0,1-.389-.337.655.655,0,0,1-.163-.3.584.584,0,0,1,.05-.331,2.21,2.21,0,0,1,.268-.441l1.947-2.648a.227.227,0,0,1,.357-.064l1.06.78a.3.3,0,0,1,.133.165.285.285,0,0,1-.075.2l-.411.558,4.009,2.949.445-.6c.109-.151.23-.175.365-.075l1.084.8c.127.093.135.214.026.363l-2,2.727a1.131,1.131,0,0,1-.6.49A1.174,1.174,0,0,1,15.359,77.731ZM13.444,69.87l-1-.736c-.143-.1-.153-.238-.032-.4l.937-1.272q-.905-.613-1.814-1.336c-.085-.062-.127-.121-.123-.177a.407.407,0,0,1,.093-.206l.445-.6c.069-.1.131-.151.181-.159a.262.262,0,0,1,.193.071q1.355,1.048,2.556,1.828c.8.518,1.6,1,2.407,1.427.109.06.167.111.169.159a.436.436,0,0,1-.065.21l-.363.7c-.062.083-.115.119-.165.111a.709.709,0,0,1-.195-.067q-.464-.217-.907-.466t-.913-.528l-1,1.365A.261.261,0,0,1,13.444,69.87ZM15.992,75.5l-4.011-2.951-.351.48a.113.113,0,0,0,.032.179L15.458,76a.114.114,0,0,0,.181-.02Zm-.923-8.927a3.647,3.647,0,0,1-.764-.748,3.066,3.066,0,0,1-.466-.879,2.178,2.178,0,0,1-.105-.9,1.648,1.648,0,0,1,.324-.828,1.73,1.73,0,0,1,.709-.574,2.187,2.187,0,0,1,.891-.179,2.923,2.923,0,0,1,.976.185,3.705,3.705,0,0,1,.951.51,3.657,3.657,0,0,1,.774.76,2.889,2.889,0,0,1,.46.871,2.122,2.122,0,0,1,.091.9,1.76,1.76,0,0,1-.343.842,1.672,1.672,0,0,1-.689.56,2.123,2.123,0,0,1-.883.177,2.914,2.914,0,0,1-.971-.181A3.575,3.575,0,0,1,15.069,66.569Zm1.967,5.906-.976-.716a.461.461,0,0,1-.133-.143q-.039-.068.077-.226l.131-.179-1.155-.849a.31.31,0,0,1-.131-.157c-.01-.048.018-.115.085-.2l.46-.625c.075-.105.137-.153.183-.141a.5.5,0,0,1,.165.087l1.157.851,3.426-4.658a.233.233,0,0,1,.369-.056l.976.716a.286.286,0,0,1,.127.163.31.31,0,0,1-.081.2l-4.323,5.875c-.075.105-.137.155-.179.153A.392.392,0,0,1,17.036,72.476ZM16.8,64.213a1.25,1.25,0,0,0-.83-.294.754.754,0,0,0-.568.282.6.6,0,0,0-.1.276.931.931,0,0,0,.02.351,1.1,1.1,0,0,0,.167.371,1.414,1.414,0,0,0,.337.343,1.335,1.335,0,0,0,.437.226,1.214,1.214,0,0,0,.411.054.856.856,0,0,0,.341-.083.688.688,0,0,0,.226-.187.749.749,0,0,0,.1-.625A1.259,1.259,0,0,0,16.8,64.213Zm2.233,9.836-1.04-.766a.327.327,0,0,1-.135-.149c-.012-.044.02-.117.1-.22l4.487-6.1a.308.308,0,0,1,.165-.135.276.276,0,0,1,.193.071l1.04.766a.252.252,0,0,1,.121.157.338.338,0,0,1-.087.2l-4.485,6.1c-.077.105-.137.159-.177.163A.3.3,0,0,1,19.035,74.05Z" transform="translate(9.34 61.503)" fill="none" stroke="#1a1818" stroke-width="0.4"/>
      <path id="패스_26" data-name="패스 26" d="M20.648,80.813,15.6,77.855a2.533,2.533,0,0,1-.423-.294.636.636,0,0,1-.193-.284A.568.568,0,0,1,15,76.94a2.214,2.214,0,0,1,.218-.464l2.076-3.543a.219.219,0,0,1,.341-.087l1.137.665a.331.331,0,0,1,.151.145.262.262,0,0,1-.05.2l-.512.871,3.648,2.138.54-.921c.052-.087.105-.137.163-.147a.272.272,0,0,1,.187.048l1.159.677a.251.251,0,0,1,.125.139.276.276,0,0,1-.054.208L22.006,80.5a1.122,1.122,0,0,1-.544.552,1.147,1.147,0,0,1-.814-.236M16.4,71.75c-.165-.012-.266-.042-.3-.1a.354.354,0,0,1-.048-.218l.04-1.086q.018-.265.351-.262a10.331,10.331,0,0,0,1.487-.036,11.594,11.594,0,0,0,1.4-.216,7.8,7.8,0,0,0,1.215-.365,4.722,4.722,0,0,0,.937-.478.623.623,0,0,0,.254-.238c.022-.064-.03-.129-.151-.2l-2.511-1.471c-.107-.064-.157-.121-.151-.175A.611.611,0,0,1,19,66.7l.484-.826a.247.247,0,0,1,.375-.117L23.6,67.95c.454.268.665.546.627.834a1.637,1.637,0,0,1-.605.931,8.172,8.172,0,0,1-.849.627,6.678,6.678,0,0,1-.988.53,7,7,0,0,0,.51,1.367q.324.649.591,1.127a.224.224,0,0,1-.113.349l-1.044.532a.228.228,0,0,1-.181.038.369.369,0,0,1-.159-.159c-.079-.143-.169-.312-.268-.508s-.2-.415-.3-.655-.2-.49-.294-.75-.179-.524-.248-.79a11.932,11.932,0,0,1-1.9.325,10.711,10.711,0,0,1-1.987,0M21.232,78.2l-3.648-2.136-.435.74a.114.114,0,0,0,.05.175l3.422,2a.114.114,0,0,0,.177-.042Zm1.653-6.262a.238.238,0,0,1-.087-.371l.5-.863q.1-.167.179-.161a.483.483,0,0,1,.183.067l1.51.883,1.248-2.128c.06-.105.121-.155.181-.153a.459.459,0,0,1,.191.064l1.125.659c.1.06.145.115.137.171a.459.459,0,0,1-.065.179L24.76,75.8a.227.227,0,0,1-.349.1l-1.137-.665a.22.22,0,0,1-.089-.341L24.4,72.82Z" transform="translate(14.737 64.71)" fill="#fff"/>
      <path id="패스_27" data-name="패스 27" d="M20.648,80.813,15.6,77.855a2.533,2.533,0,0,1-.423-.294.636.636,0,0,1-.193-.284A.568.568,0,0,1,15,76.94a2.214,2.214,0,0,1,.218-.464l2.076-3.543a.219.219,0,0,1,.341-.087l1.137.665a.331.331,0,0,1,.151.145.262.262,0,0,1-.05.2l-.512.871,3.648,2.138.54-.921c.052-.087.105-.137.163-.147a.272.272,0,0,1,.187.048l1.159.677a.251.251,0,0,1,.125.139.276.276,0,0,1-.054.208L22.006,80.5a1.122,1.122,0,0,1-.544.552A1.147,1.147,0,0,1,20.648,80.813ZM16.4,71.75c-.165-.012-.266-.042-.3-.1a.354.354,0,0,1-.048-.218l.04-1.086q.018-.265.351-.262a10.331,10.331,0,0,0,1.487-.036,11.594,11.594,0,0,0,1.4-.216,7.8,7.8,0,0,0,1.215-.365,4.722,4.722,0,0,0,.937-.478.623.623,0,0,0,.254-.238c.022-.064-.03-.129-.151-.2l-2.511-1.471c-.107-.064-.157-.121-.151-.175A.611.611,0,0,1,19,66.7l.484-.826a.247.247,0,0,1,.375-.117L23.6,67.95c.454.268.665.546.627.834a1.637,1.637,0,0,1-.605.931,8.172,8.172,0,0,1-.849.627,6.678,6.678,0,0,1-.988.53,7,7,0,0,0,.51,1.367q.324.649.591,1.127a.224.224,0,0,1-.113.349l-1.044.532a.228.228,0,0,1-.181.038.369.369,0,0,1-.159-.159c-.079-.143-.169-.312-.268-.508s-.2-.415-.3-.655-.2-.49-.294-.75-.179-.524-.248-.79a11.932,11.932,0,0,1-1.9.325A10.711,10.711,0,0,1,16.4,71.75ZM21.232,78.2l-3.648-2.136-.435.74a.114.114,0,0,0,.05.175l3.422,2a.114.114,0,0,0,.177-.042Zm1.653-6.262a.238.238,0,0,1-.087-.371l.5-.863q.1-.167.179-.161a.483.483,0,0,1,.183.067l1.51.883,1.248-2.128c.06-.105.121-.155.181-.153a.459.459,0,0,1,.191.064l1.125.659c.1.06.145.115.137.171a.459.459,0,0,1-.065.179L24.76,75.8a.227.227,0,0,1-.349.1l-1.137-.665a.22.22,0,0,1-.089-.341L24.4,72.82Z" transform="translate(14.737 64.71)" fill="none" stroke="#1a1818" stroke-width="0.4"/>
      <path id="패스_28" data-name="패스 28" d="M27.487,83.488l-6.7-3.134a1.771,1.771,0,0,1-.391-.236.57.57,0,0,1-.185-.262.663.663,0,0,1,0-.335,2.652,2.652,0,0,1,.171-.458l1.373-2.937c.083-.177.2-.226.363-.153l1.169.546a.253.253,0,0,1,.127.383l-1.04,2.223a.178.178,0,0,0,.091.27l5.692,2.661a.379.379,0,0,1,.151.127.206.206,0,0,1-.006.216l-.458.98c-.056.117-.113.173-.171.165a.641.641,0,0,1-.187-.056m3.662-4.472L20.911,74.23c-.111-.052-.171-.105-.175-.157a.468.468,0,0,1,.06-.218l.423-.905a.358.358,0,0,1,.137-.173.283.283,0,0,1,.218.034l7.123,3.33c.119-.169.264-.4.437-.685s.343-.576.51-.869.312-.562.437-.8.206-.393.242-.468a.676.676,0,0,0,.079-.294c-.008-.067-.085-.139-.238-.208l-5.392-2.523a.464.464,0,0,1-.171-.117c-.034-.042-.026-.117.026-.224l.458-.982c.042-.089.091-.139.147-.143a.406.406,0,0,1,.2.05l6.5,3.039a.971.971,0,0,1,.54.49,1.007,1.007,0,0,1-.109.768c-.107.226-.238.492-.4.8s-.331.629-.518.967-.381.673-.583,1.012-.4.647-.6.923l1.538.718a.355.355,0,0,1,.157.135.256.256,0,0,1-.024.234l-.423.905a.25.25,0,0,1-.373.147" transform="translate(19.878 67.773)" fill="#fff"/>
      <path id="패스_29" data-name="패스 29" d="M27.487,83.488l-6.7-3.134a1.771,1.771,0,0,1-.391-.236.57.57,0,0,1-.185-.262.663.663,0,0,1,0-.335,2.652,2.652,0,0,1,.171-.458l1.373-2.937c.083-.177.2-.226.363-.153l1.169.546a.253.253,0,0,1,.127.383l-1.04,2.223a.178.178,0,0,0,.091.27l5.692,2.661a.379.379,0,0,1,.151.127.206.206,0,0,1-.006.216l-.458.98c-.056.117-.113.173-.171.165A.641.641,0,0,1,27.487,83.488Zm3.662-4.472L20.911,74.23c-.111-.052-.171-.105-.175-.157a.468.468,0,0,1,.06-.218l.423-.905a.358.358,0,0,1,.137-.173.283.283,0,0,1,.218.034l7.123,3.33c.119-.169.264-.4.437-.685s.343-.576.51-.869.312-.562.437-.8.206-.393.242-.468a.676.676,0,0,0,.079-.294c-.008-.067-.085-.139-.238-.208l-5.392-2.523a.464.464,0,0,1-.171-.117c-.034-.042-.026-.117.026-.224l.458-.982c.042-.089.091-.139.147-.143a.406.406,0,0,1,.2.05l6.5,3.039a.971.971,0,0,1,.54.49,1.007,1.007,0,0,1-.109.768c-.107.226-.238.492-.4.8s-.331.629-.518.967-.381.673-.583,1.012-.4.647-.6.923l1.538.718a.355.355,0,0,1,.157.135.256.256,0,0,1-.024.234l-.423.905A.25.25,0,0,1,31.148,79.017Z" transform="translate(19.878 67.773)" fill="none" stroke="#1a1818" stroke-width="0.4"/>
      <path id="패스_30" data-name="패스 30" d="M27.185,77.666a1.056,1.056,0,0,1-.369.036c-.056-.016-.1-.083-.129-.2l-.308-1.03c-.048-.175-.048-.282,0-.318a.974.974,0,0,1,.262-.119,5.677,5.677,0,0,0,1.546-.655,6.561,6.561,0,0,0,1.28-1.014,7.041,7.041,0,0,0,1-1.284A8.6,8.6,0,0,0,31.18,71.6c.054-.147.105-.23.153-.246a.366.366,0,0,1,.24.05l1.155.486a.356.356,0,0,1,.165.127.283.283,0,0,1-.02.206,10.567,10.567,0,0,1-1.07,2.134,4.8,4.8,0,0,0,.169,1.008,6.618,6.618,0,0,0,.351.971,6.99,6.99,0,0,0,.46.865,5.8,5.8,0,0,0,.484.683c.087.119.117.21.089.27a.637.637,0,0,1-.195.208L32.394,79c-.105.079-.183.117-.236.107a.5.5,0,0,1-.218-.171,6.574,6.574,0,0,1-.429-.564,7.567,7.567,0,0,1-.433-.714,6.814,6.814,0,0,1-.631-1.711,7.713,7.713,0,0,1-1.51,1.068,6.9,6.9,0,0,1-1.752.653m2.729,7.141a5.651,5.651,0,0,1-1.411-.742,4.231,4.231,0,0,1-.98-.975,2.817,2.817,0,0,1-.484-1.1,2.044,2.044,0,0,1,.1-1.131,1.97,1.97,0,0,1,.651-.889,2.885,2.885,0,0,1,1.082-.518,4.308,4.308,0,0,1,1.379-.105A5.707,5.707,0,0,1,31.8,79.7a5.848,5.848,0,0,1,1.381.724,4.51,4.51,0,0,1,1.008.976,3.145,3.145,0,0,1,.53,1.113,1.879,1.879,0,0,1-.064,1.121,1.93,1.93,0,0,1-.689.913,3.05,3.05,0,0,1-1.127.508,4.491,4.491,0,0,1-1.4.1,5.584,5.584,0,0,1-1.524-.341m1.363-3.694a2.774,2.774,0,0,0-1.582-.185,1.048,1.048,0,0,0-.822.613,1,1,0,0,0,.238.969,2.881,2.881,0,0,0,1.33.865,3.616,3.616,0,0,0,.836.206,2.723,2.723,0,0,0,.732,0,1.428,1.428,0,0,0,.556-.195.73.73,0,0,0,.312-.363.766.766,0,0,0,0-.486,1.562,1.562,0,0,0-.29-.53,2.619,2.619,0,0,0-.546-.5,3.329,3.329,0,0,0-.768-.395m1.939-5.063a.277.277,0,0,1-.155-.117.261.261,0,0,1,.012-.216l.353-.963q.068-.182.149-.191a.432.432,0,0,1,.179.03l1.941.716.772-2.1c.042-.111.091-.173.151-.181a.433.433,0,0,1,.2.03l1.225.453c.107.038.163.087.165.143a.455.455,0,0,1-.034.187l-2.453,6.647a.226.226,0,0,1-.325.159L34.157,80.2a.22.22,0,0,1-.149-.32l1.149-3.112Z" transform="translate(25.94 70.26)" fill="#fff"/>
      <path id="패스_31" data-name="패스 31" d="M27.185,77.666a1.056,1.056,0,0,1-.369.036c-.056-.016-.1-.083-.129-.2l-.308-1.03c-.048-.175-.048-.282,0-.318a.974.974,0,0,1,.262-.119,5.677,5.677,0,0,0,1.546-.655,6.561,6.561,0,0,0,1.28-1.014,7.041,7.041,0,0,0,1-1.284A8.6,8.6,0,0,0,31.18,71.6c.054-.147.105-.23.153-.246a.366.366,0,0,1,.24.05l1.155.486a.356.356,0,0,1,.165.127.283.283,0,0,1-.02.206,10.567,10.567,0,0,1-1.07,2.134,4.8,4.8,0,0,0,.169,1.008,6.618,6.618,0,0,0,.351.971,6.99,6.99,0,0,0,.46.865,5.8,5.8,0,0,0,.484.683c.087.119.117.21.089.27a.637.637,0,0,1-.195.208L32.394,79c-.105.079-.183.117-.236.107a.5.5,0,0,1-.218-.171,6.574,6.574,0,0,1-.429-.564,7.567,7.567,0,0,1-.433-.714,6.814,6.814,0,0,1-.631-1.711,7.713,7.713,0,0,1-1.51,1.068A6.9,6.9,0,0,1,27.185,77.666Zm2.729,7.141a5.651,5.651,0,0,1-1.411-.742,4.231,4.231,0,0,1-.98-.975,2.817,2.817,0,0,1-.484-1.1,2.044,2.044,0,0,1,.1-1.131,1.97,1.97,0,0,1,.651-.889,2.885,2.885,0,0,1,1.082-.518,4.308,4.308,0,0,1,1.379-.105A5.707,5.707,0,0,1,31.8,79.7a5.848,5.848,0,0,1,1.381.724,4.51,4.51,0,0,1,1.008.976,3.145,3.145,0,0,1,.53,1.113,1.879,1.879,0,0,1-.064,1.121,1.93,1.93,0,0,1-.689.913,3.05,3.05,0,0,1-1.127.508,4.491,4.491,0,0,1-1.4.1A5.584,5.584,0,0,1,29.914,84.807Zm1.363-3.694a2.774,2.774,0,0,0-1.582-.185,1.048,1.048,0,0,0-.822.613,1,1,0,0,0,.238.969,2.881,2.881,0,0,0,1.33.865,3.616,3.616,0,0,0,.836.206,2.723,2.723,0,0,0,.732,0,1.428,1.428,0,0,0,.556-.195.73.73,0,0,0,.312-.363.766.766,0,0,0,0-.486,1.562,1.562,0,0,0-.29-.53,2.619,2.619,0,0,0-.546-.5A3.329,3.329,0,0,0,31.277,81.113Zm1.939-5.063a.277.277,0,0,1-.155-.117.261.261,0,0,1,.012-.216l.353-.963q.068-.182.149-.191a.432.432,0,0,1,.179.03l1.941.716.772-2.1c.042-.111.091-.173.151-.181a.433.433,0,0,1,.2.03l1.225.453c.107.038.163.087.165.143a.455.455,0,0,1-.034.187l-2.453,6.647a.226.226,0,0,1-.325.159L34.157,80.2a.22.22,0,0,1-.149-.32l1.149-3.112Z" transform="translate(25.94 70.26)" fill="none" stroke="#1a1818" stroke-width="0.4"/>
      <path id="패스_32" data-name="패스 32" d="M39.845,87.374l-6.653-1.887a1.852,1.852,0,0,1-.437-.175.541.541,0,0,1-.226-.242.726.726,0,0,1-.052-.347,2.491,2.491,0,0,1,.1-.478l.853-3.015c.054-.185.165-.256.333-.206l1.254.355c.169.048.226.165.175.351L34.545,84a.186.186,0,0,0,.147.258l5.587,1.584a.348.348,0,0,1,.165.1.223.223,0,0,1,.02.216l-.3,1.054c-.036.125-.081.189-.137.193a.525.525,0,0,1-.185-.024M34.9,79.961a3.311,3.311,0,0,1-1.187-.6,3.04,3.04,0,0,1-.8-.955,3.157,3.157,0,0,1-.359-1.195,3.555,3.555,0,0,1,.129-1.326,3.458,3.458,0,0,1,.576-1.157,3.266,3.266,0,0,1,.935-.838,3.324,3.324,0,0,1,1.187-.419,3.118,3.118,0,0,1,1.33.1,3.209,3.209,0,0,1,1.2.623,3.271,3.271,0,0,1,1.179,2.193,3.365,3.365,0,0,1-.111,1.286,3.46,3.46,0,0,1-.593,1.195,3.217,3.217,0,0,1-.947.828,3.057,3.057,0,0,1-1.2.387,3.437,3.437,0,0,1-1.348-.121m1.354-4.777a1.365,1.365,0,0,0-.6-.04,1.5,1.5,0,0,0-.554.21,1.641,1.641,0,0,0-.451.435,2.072,2.072,0,0,0-.367,1.294,1.615,1.615,0,0,0,.157.607,1.442,1.442,0,0,0,.359.468,1.361,1.361,0,0,0,.53.28,1.39,1.39,0,0,0,1.175-.163,1.931,1.931,0,0,0,.663-2.336,1.4,1.4,0,0,0-.915-.756m4.241,8.554-1.28-.363a.25.25,0,0,1-.173-.113.345.345,0,0,1,.008-.222l2.417-8.522a.228.228,0,0,1,.312-.187l1.28.363c.153.044.206.151.157.32L40.791,83.55a.354.354,0,0,1-.1.187.241.241,0,0,1-.2,0" transform="translate(31.978 72.319)" fill="#fff"/>
      <path id="패스_33" data-name="패스 33" d="M39.845,87.374l-6.653-1.887a1.852,1.852,0,0,1-.437-.175.541.541,0,0,1-.226-.242.726.726,0,0,1-.052-.347,2.491,2.491,0,0,1,.1-.478l.853-3.015c.054-.185.165-.256.333-.206l1.254.355c.169.048.226.165.175.351L34.545,84a.186.186,0,0,0,.147.258l5.587,1.584a.348.348,0,0,1,.165.1.223.223,0,0,1,.02.216l-.3,1.054c-.036.125-.081.189-.137.193A.525.525,0,0,1,39.845,87.374ZM34.9,79.961a3.311,3.311,0,0,1-1.187-.6,3.04,3.04,0,0,1-.8-.955,3.157,3.157,0,0,1-.359-1.195,3.555,3.555,0,0,1,.129-1.326,3.458,3.458,0,0,1,.576-1.157,3.266,3.266,0,0,1,.935-.838,3.324,3.324,0,0,1,1.187-.419,3.118,3.118,0,0,1,1.33.1,3.209,3.209,0,0,1,1.2.623,3.271,3.271,0,0,1,1.179,2.193,3.365,3.365,0,0,1-.111,1.286,3.46,3.46,0,0,1-.593,1.195,3.217,3.217,0,0,1-.947.828,3.057,3.057,0,0,1-1.2.387A3.437,3.437,0,0,1,34.9,79.961Zm1.354-4.777a1.365,1.365,0,0,0-.6-.04,1.5,1.5,0,0,0-.554.21,1.641,1.641,0,0,0-.451.435,2.072,2.072,0,0,0-.367,1.294,1.615,1.615,0,0,0,.157.607,1.442,1.442,0,0,0,.359.468,1.361,1.361,0,0,0,.53.28,1.39,1.39,0,0,0,1.175-.163,1.931,1.931,0,0,0,.663-2.336A1.4,1.4,0,0,0,36.25,75.184Zm4.241,8.554-1.28-.363a.25.25,0,0,1-.173-.113.345.345,0,0,1,.008-.222l2.417-8.522a.228.228,0,0,1,.312-.187l1.28.363c.153.044.206.151.157.32L40.791,83.55a.354.354,0,0,1-.1.187A.241.241,0,0,1,40.492,83.738Z" transform="translate(31.978 72.319)" fill="none" stroke="#1a1818" stroke-width="0.4"/>
      <path id="패스_34" data-name="패스 34" d="M49.041,83.689l-11.069-2.28c-.121-.026-.189-.06-.206-.107a.466.466,0,0,1,.008-.232l.2-.976a.349.349,0,0,1,.1-.2.273.273,0,0,1,.22-.018l11.067,2.28a.344.344,0,0,1,.183.1.25.25,0,0,1,.034.232l-.2.978a.249.249,0,0,1-.329.228m-6.7,4.523a7.387,7.387,0,0,1-1.709-.552,4.5,4.5,0,0,1-1.193-.8,2.559,2.559,0,0,1-.651-.953,1.838,1.838,0,0,1-.077-1.022,1.871,1.871,0,0,1,.476-.915,2.481,2.481,0,0,1,.976-.619A4.542,4.542,0,0,1,41.57,83.1a8.326,8.326,0,0,1,3.5.72,4.57,4.57,0,0,1,1.189.79,2.566,2.566,0,0,1,.649.955,1.836,1.836,0,0,1,.083,1.03,1.779,1.779,0,0,1-.482.905,2.665,2.665,0,0,1-.974.621,4.429,4.429,0,0,1-1.405.262,7.527,7.527,0,0,1-1.788-.171m4.406-9.822c-.05.026-.1.052-.157.073a1.5,1.5,0,0,1-.167.058c.2.117.417.234.649.353s.46.234.693.349l.679.331c.22.105.429.2.629.276a.353.353,0,0,1,.21.149c.024.06,0,.147-.067.264L48.763,81c-.071.119-.135.185-.2.2a.369.369,0,0,1-.228-.034q-.893-.366-1.931-.907T44.4,79.124a21.107,21.107,0,0,1-2.3.367,18.014,18.014,0,0,1-2.368.1.516.516,0,0,1-.266-.046.352.352,0,0,1-.1-.212l-.115-.943c-.026-.224.06-.337.258-.343a23.533,23.533,0,0,0,3.193-.256,14.88,14.88,0,0,0,2.437-.566c.1-.028.149-.065.157-.111s-.038-.077-.141-.1l-4.231-.871a.272.272,0,0,1-.183-.1.308.308,0,0,1-.008-.214l.206-1a.276.276,0,0,1,.091-.187.291.291,0,0,1,.2-.008l6.1,1.258a1.543,1.543,0,0,1,.885.437.707.707,0,0,1,.2.609,1.4,1.4,0,0,1-.558.812,4.779,4.779,0,0,1-1.127.639m-3.686,6.333a3.946,3.946,0,0,0-1.747-.042c-.458.117-.718.318-.776.6a.606.606,0,0,0,.083.415,1.365,1.365,0,0,0,.4.429,3.422,3.422,0,0,0,.681.381,5.319,5.319,0,0,0,1.909.395,3.437,3.437,0,0,0,.776-.081,1.461,1.461,0,0,0,.534-.236.609.609,0,0,0,.238-.347c.058-.282-.1-.566-.476-.857a3.977,3.977,0,0,0-1.62-.651" transform="translate(37.177 73.479)" fill="#fff"/>
      <path id="패스_35" data-name="패스 35" d="M49.041,83.689l-11.069-2.28c-.121-.026-.189-.06-.206-.107a.466.466,0,0,1,.008-.232l.2-.976a.349.349,0,0,1,.1-.2.273.273,0,0,1,.22-.018l11.067,2.28a.344.344,0,0,1,.183.1.25.25,0,0,1,.034.232l-.2.978A.249.249,0,0,1,49.041,83.689Zm-6.7,4.523a7.387,7.387,0,0,1-1.709-.552,4.5,4.5,0,0,1-1.193-.8,2.559,2.559,0,0,1-.651-.953,1.838,1.838,0,0,1-.077-1.022,1.871,1.871,0,0,1,.476-.915,2.481,2.481,0,0,1,.976-.619A4.542,4.542,0,0,1,41.57,83.1a8.326,8.326,0,0,1,3.5.72,4.57,4.57,0,0,1,1.189.79,2.566,2.566,0,0,1,.649.955,1.836,1.836,0,0,1,.083,1.03,1.779,1.779,0,0,1-.482.905,2.665,2.665,0,0,1-.974.621,4.429,4.429,0,0,1-1.405.262A7.527,7.527,0,0,1,42.338,88.212Zm4.406-9.822c-.05.026-.1.052-.157.073a1.5,1.5,0,0,1-.167.058c.2.117.417.234.649.353s.46.234.693.349l.679.331c.22.105.429.2.629.276a.353.353,0,0,1,.21.149c.024.06,0,.147-.067.264L48.763,81c-.071.119-.135.185-.2.2a.369.369,0,0,1-.228-.034q-.893-.366-1.931-.907T44.4,79.124a21.107,21.107,0,0,1-2.3.367,18.014,18.014,0,0,1-2.368.1.516.516,0,0,1-.266-.046.352.352,0,0,1-.1-.212l-.115-.943c-.026-.224.06-.337.258-.343a23.533,23.533,0,0,0,3.193-.256,14.88,14.88,0,0,0,2.437-.566c.1-.028.149-.065.157-.111s-.038-.077-.141-.1l-4.231-.871a.272.272,0,0,1-.183-.1.308.308,0,0,1-.008-.214l.206-1a.276.276,0,0,1,.091-.187.291.291,0,0,1,.2-.008l6.1,1.258a1.543,1.543,0,0,1,.885.437.707.707,0,0,1,.2.609,1.4,1.4,0,0,1-.558.812A4.779,4.779,0,0,1,46.744,78.39Zm-3.686,6.333a3.946,3.946,0,0,0-1.747-.042c-.458.117-.718.318-.776.6a.606.606,0,0,0,.083.415,1.365,1.365,0,0,0,.4.429,3.422,3.422,0,0,0,.681.381,5.319,5.319,0,0,0,1.909.395,3.437,3.437,0,0,0,.776-.081,1.461,1.461,0,0,0,.534-.236.609.609,0,0,0,.238-.347c.058-.282-.1-.566-.476-.857A3.977,3.977,0,0,0,43.059,84.723Z" transform="translate(37.177 73.479)" fill="none" stroke="#1a1818" stroke-width="0.4"/>
      <path id="패스_36" data-name="패스 36" d="M51.433,83.408c-.524.012-1.082.006-1.671-.024s-1.2-.073-1.83-.135-1.268-.135-1.917-.222-1.288-.185-1.919-.29c-.123-.016-.194-.048-.214-.1a.459.459,0,0,1-.01-.224L44,81.493a.34.34,0,0,1,.081-.2c.04-.038.111-.044.216-.02.181.034.363.062.546.087s.361.048.536.071l.54-4-.9-.121a.262.262,0,0,1-.246-.341l.123-.907a.254.254,0,0,1,.325-.248l6.357.859c.173.022.248.129.222.324l-.125.921c-.026.191-.125.276-.3.252l-.758-.1-.522,3.874c.228.012.451.024.667.034s.433.012.657,0c.135-.018.206.038.216.169l.016.955a.422.422,0,0,1-.046.246.262.262,0,0,1-.169.062m-1.889,5.928a6.094,6.094,0,0,1-1.542-.4,4.113,4.113,0,0,1-1.171-.711,2.791,2.791,0,0,1-.718-.937,1.951,1.951,0,0,1-.159-1.092,1.859,1.859,0,0,1,.439-.976,2.745,2.745,0,0,1,.939-.7,4.414,4.414,0,0,1,1.32-.375,5.871,5.871,0,0,1,1.592.012,6.083,6.083,0,0,1,1.508.4,4.736,4.736,0,0,1,1.2.709,3.012,3.012,0,0,1,.764.935,1.8,1.8,0,0,1-.28,2.062,3.047,3.047,0,0,1-.984.707,4.681,4.681,0,0,1-1.348.377,5.708,5.708,0,0,1-1.56-.008M48.313,81.81l.54-3.983-1.177-.159-.54,4c.2.028.4.056.587.079s.389.05.589.066m1.731,3.817a3.707,3.707,0,0,0-.893-.022,2.456,2.456,0,0,0-.687.165,1.286,1.286,0,0,0-.462.31.746.746,0,0,0-.2.4.929.929,0,0,0,.46.832,3.02,3.02,0,0,0,1.483.536,3.72,3.72,0,0,0,.859.026,2.786,2.786,0,0,0,.713-.149,1.413,1.413,0,0,0,.5-.29.636.636,0,0,0,.218-.383.7.7,0,0,0-.105-.449,1.478,1.478,0,0,0-.4-.423,2.854,2.854,0,0,0-.645-.347,3.6,3.6,0,0,0-.836-.21M51.425,81.6a.327.327,0,0,1-.189-.075.237.237,0,0,1-.04-.208l.113-.836a.271.271,0,0,1,.093-.2.3.3,0,0,1,.2-.03l1.292.175.081-.605-1.292-.173a.327.327,0,0,1-.189-.075.237.237,0,0,1-.04-.208l.111-.824c.016-.111.048-.179.1-.2a.334.334,0,0,1,.2-.022l1.292.177.258-1.925c.018-.119.054-.189.109-.21a.441.441,0,0,1,.2-.014l1.29.173c.115.016.179.052.193.105a.458.458,0,0,1,.008.191l-.978,7.24c-.024.183-.119.264-.284.24l-1.306-.175a.228.228,0,0,1-.212-.3l.276-2.046Z" transform="translate(43.192 74.645)" fill="#fff"/>
      <path id="패스_37" data-name="패스 37" d="M51.433,83.408c-.524.012-1.082.006-1.671-.024s-1.2-.073-1.83-.135-1.268-.135-1.917-.222-1.288-.185-1.919-.29c-.123-.016-.194-.048-.214-.1a.459.459,0,0,1-.01-.224L44,81.493a.34.34,0,0,1,.081-.2c.04-.038.111-.044.216-.02.181.034.363.062.546.087s.361.048.536.071l.54-4-.9-.121a.262.262,0,0,1-.246-.341l.123-.907a.254.254,0,0,1,.325-.248l6.357.859c.173.022.248.129.222.324l-.125.921c-.026.191-.125.276-.3.252l-.758-.1-.522,3.874c.228.012.451.024.667.034s.433.012.657,0c.135-.018.206.038.216.169l.016.955a.422.422,0,0,1-.046.246A.262.262,0,0,1,51.433,83.408Zm-1.889,5.928a6.094,6.094,0,0,1-1.542-.4,4.113,4.113,0,0,1-1.171-.711,2.791,2.791,0,0,1-.718-.937,1.951,1.951,0,0,1-.159-1.092,1.859,1.859,0,0,1,.439-.976,2.745,2.745,0,0,1,.939-.7,4.414,4.414,0,0,1,1.32-.375,5.871,5.871,0,0,1,1.592.012,6.083,6.083,0,0,1,1.508.4,4.736,4.736,0,0,1,1.2.709,3.012,3.012,0,0,1,.764.935,1.8,1.8,0,0,1-.28,2.062,3.047,3.047,0,0,1-.984.707,4.681,4.681,0,0,1-1.348.377A5.708,5.708,0,0,1,49.543,89.336ZM48.313,81.81l.54-3.983-1.177-.159-.54,4c.2.028.4.056.587.079S48.112,81.794,48.313,81.81Zm1.731,3.817a3.707,3.707,0,0,0-.893-.022,2.456,2.456,0,0,0-.687.165,1.286,1.286,0,0,0-.462.31.746.746,0,0,0-.2.4.929.929,0,0,0,.46.832,3.02,3.02,0,0,0,1.483.536,3.72,3.72,0,0,0,.859.026,2.786,2.786,0,0,0,.713-.149,1.413,1.413,0,0,0,.5-.29.636.636,0,0,0,.218-.383.7.7,0,0,0-.105-.449,1.478,1.478,0,0,0-.4-.423,2.854,2.854,0,0,0-.645-.347A3.6,3.6,0,0,0,50.043,85.627ZM51.425,81.6a.327.327,0,0,1-.189-.075.237.237,0,0,1-.04-.208l.113-.836a.271.271,0,0,1,.093-.2.3.3,0,0,1,.2-.03l1.292.175.081-.605-1.292-.173a.327.327,0,0,1-.189-.075.237.237,0,0,1-.04-.208l.111-.824c.016-.111.048-.179.1-.2a.334.334,0,0,1,.2-.022l1.292.177.258-1.925c.018-.119.054-.189.109-.21a.441.441,0,0,1,.2-.014l1.29.173c.115.016.179.052.193.105a.458.458,0,0,1,.008.191l-.978,7.24c-.024.183-.119.264-.284.24l-1.306-.175a.228.228,0,0,1-.212-.3l.276-2.046Z" transform="translate(43.192 74.645)" fill="none" stroke="#1a1818" stroke-width="0.4"/>
      <path id="패스_38" data-name="패스 38" d="M51.024,86.479a.644.644,0,0,1-.292.093c-.064-.006-.129-.062-.193-.167l-.552-1.01a.32.32,0,0,1-.042-.268.31.31,0,0,1,.165-.183,10.546,10.546,0,0,0,3.31-2.5,7.1,7.1,0,0,0,1.608-3.255c.038-.193-.02-.294-.177-.3l-3.668-.248c-.113-.008-.183-.034-.206-.077a.415.415,0,0,1-.024-.218l.069-1.036a.311.311,0,0,1,.067-.212.316.316,0,0,1,.2-.034l4.783.324a1.047,1.047,0,0,1,.849.343,1.373,1.373,0,0,1,.109.9,9.279,9.279,0,0,1-.645,2.39,9.559,9.559,0,0,1-1.252,2.151,11.246,11.246,0,0,1-1.808,1.844,12.035,12.035,0,0,1-2.3,1.463M61.64,83.321,60.01,83.21l-.437,6.446a.349.349,0,0,1-.06.212.271.271,0,0,1-.194.034l-1.328-.089a.307.307,0,0,1-.2-.062c-.038-.034-.052-.107-.044-.218l.861-12.742a.294.294,0,0,1,.073-.2.317.317,0,0,1,.208-.04l1.328.089a.244.244,0,0,1,.185.069.329.329,0,0,1,.034.208l-.32,4.718,1.629.111a.448.448,0,0,1,.187.048c.048.026.067.1.058.234l-.069,1.05c-.008.113-.038.183-.087.21a.33.33,0,0,1-.194.036" transform="translate(49.168 75.375)" fill="#fff"/>
      <path id="패스_39" data-name="패스 39" d="M51.024,86.479a.644.644,0,0,1-.292.093c-.064-.006-.129-.062-.193-.167l-.552-1.01a.32.32,0,0,1-.042-.268.31.31,0,0,1,.165-.183,10.546,10.546,0,0,0,3.31-2.5,7.1,7.1,0,0,0,1.608-3.255c.038-.193-.02-.294-.177-.3l-3.668-.248c-.113-.008-.183-.034-.206-.077a.415.415,0,0,1-.024-.218l.069-1.036a.311.311,0,0,1,.067-.212.316.316,0,0,1,.2-.034l4.783.324a1.047,1.047,0,0,1,.849.343,1.373,1.373,0,0,1,.109.9,9.279,9.279,0,0,1-.645,2.39,9.559,9.559,0,0,1-1.252,2.151,11.246,11.246,0,0,1-1.808,1.844A12.035,12.035,0,0,1,51.024,86.479ZM61.64,83.321,60.01,83.21l-.437,6.446a.349.349,0,0,1-.06.212.271.271,0,0,1-.194.034l-1.328-.089a.307.307,0,0,1-.2-.062c-.038-.034-.052-.107-.044-.218l.861-12.742a.294.294,0,0,1,.073-.2.317.317,0,0,1,.208-.04l1.328.089a.244.244,0,0,1,.185.069.329.329,0,0,1,.034.208l-.32,4.718,1.629.111a.448.448,0,0,1,.187.048c.048.026.067.1.058.234l-.069,1.05c-.008.113-.038.183-.087.21A.33.33,0,0,1,61.64,83.321Z" transform="translate(49.168 75.375)" fill="none" stroke="#1a1818" stroke-width="0.4"/>
      <path id="패스_40" data-name="패스 40" d="M60.695,85.879l-1.25-.016a.245.245,0,0,1-.274-.28l.018-1.677c-.492.014-.974.018-1.449.018s-.939-.012-1.4-.036c-.107,0-.175-.026-.2-.071a.43.43,0,0,1-.044-.222l.01-.929a.415.415,0,0,1,.056-.228.2.2,0,0,1,.2-.06q1.87.048,3.787.006a36.57,36.57,0,0,0,3.749-.272.54.54,0,0,1,.26.01c.04.026.065.091.081.2l.1.929c.016.111,0,.183-.042.214a.507.507,0,0,1-.2.073c-.492.069-1,.125-1.518.165s-1.046.081-1.582.121l-.02,1.774a.246.246,0,0,1-.28.276m-.47-3.957a3.832,3.832,0,0,1-1.229-.2,3.024,3.024,0,0,1-.971-.536,2.43,2.43,0,0,1-.635-.82,2.3,2.3,0,0,1-.218-1.042,2.164,2.164,0,0,1,.24-.982,2.4,2.4,0,0,1,.655-.784,3.23,3.23,0,0,1,.978-.514,3.671,3.671,0,0,1,1.234-.181,3.737,3.737,0,0,1,1.231.206,3.228,3.228,0,0,1,.963.538,2.4,2.4,0,0,1,.629.8,2.156,2.156,0,0,1,.22.986,2.337,2.337,0,0,1-.242,1.038,2.464,2.464,0,0,1-.647.8,3.027,3.027,0,0,1-.974.516,3.886,3.886,0,0,1-1.234.175m6.327,7.889-7.637-.083a1.77,1.77,0,0,1-.454-.054.566.566,0,0,1-.276-.163.67.67,0,0,1-.135-.306,2.633,2.633,0,0,1-.034-.488l.024-2.05c0-.185.091-.276.266-.274l1.29.012a.246.246,0,0,1,.274.282l-.014,1.262a.183.183,0,0,0,.208.208l6.508.071a.345.345,0,0,1,.183.052c.054.032.077.1.077.2l-.012,1.082c0,.129-.028.2-.081.222a.646.646,0,0,1-.187.024M60.264,78.357a1.549,1.549,0,0,0-.978.288.893.893,0,0,0-.389.724.923.923,0,0,0,.373.772,1.539,1.539,0,0,0,.971.31,1.515,1.515,0,0,0,.973-.288A.94.94,0,0,0,61.6,79.4a.9.9,0,0,0-.367-.73,1.513,1.513,0,0,0-.965-.31m6.055,8.663-1.342-.014a.205.205,0,0,1-.248-.266l.012-1.026-1.979-.022a.336.336,0,0,1-.189-.05.235.235,0,0,1-.069-.2l.01-.957q0-.182.083-.214a.429.429,0,0,1,.183-.032l1.977.02.081-7.32a.313.313,0,0,1,.054-.208.28.28,0,0,1,.2-.054l1.346.016a.263.263,0,0,1,.193.058.287.287,0,0,1,.052.208l-.105,9.8a.34.34,0,0,1-.054.216.329.329,0,0,1-.2.044" transform="translate(55.237 75.503)" fill="#fff"/>
      <path id="패스_41" data-name="패스 41" d="M60.695,85.879l-1.25-.016a.245.245,0,0,1-.274-.28l.018-1.677c-.492.014-.974.018-1.449.018s-.939-.012-1.4-.036c-.107,0-.175-.026-.2-.071a.43.43,0,0,1-.044-.222l.01-.929a.415.415,0,0,1,.056-.228.2.2,0,0,1,.2-.06q1.87.048,3.787.006a36.57,36.57,0,0,0,3.749-.272.54.54,0,0,1,.26.01c.04.026.065.091.081.2l.1.929c.016.111,0,.183-.042.214a.507.507,0,0,1-.2.073c-.492.069-1,.125-1.518.165s-1.046.081-1.582.121l-.02,1.774A.246.246,0,0,1,60.695,85.879Zm-.47-3.957a3.832,3.832,0,0,1-1.229-.2,3.024,3.024,0,0,1-.971-.536,2.43,2.43,0,0,1-.635-.82,2.3,2.3,0,0,1-.218-1.042,2.164,2.164,0,0,1,.24-.982,2.4,2.4,0,0,1,.655-.784,3.23,3.23,0,0,1,.978-.514,3.671,3.671,0,0,1,1.234-.181,3.737,3.737,0,0,1,1.231.206,3.228,3.228,0,0,1,.963.538,2.4,2.4,0,0,1,.629.8,2.156,2.156,0,0,1,.22.986,2.337,2.337,0,0,1-.242,1.038,2.464,2.464,0,0,1-.647.8,3.027,3.027,0,0,1-.974.516A3.886,3.886,0,0,1,60.224,81.922Zm6.327,7.889-7.637-.083a1.77,1.77,0,0,1-.454-.054.566.566,0,0,1-.276-.163.67.67,0,0,1-.135-.306,2.633,2.633,0,0,1-.034-.488l.024-2.05c0-.185.091-.276.266-.274l1.29.012a.246.246,0,0,1,.274.282l-.014,1.262a.183.183,0,0,0,.208.208l6.508.071a.345.345,0,0,1,.183.052c.054.032.077.1.077.2l-.012,1.082c0,.129-.028.2-.081.222A.646.646,0,0,1,66.551,89.811ZM60.264,78.357a1.549,1.549,0,0,0-.978.288.893.893,0,0,0-.389.724.923.923,0,0,0,.373.772,1.539,1.539,0,0,0,.971.31,1.515,1.515,0,0,0,.973-.288A.94.94,0,0,0,61.6,79.4a.9.9,0,0,0-.367-.73A1.513,1.513,0,0,0,60.264,78.357Zm6.055,8.663-1.342-.014a.205.205,0,0,1-.248-.266l.012-1.026-1.979-.022a.336.336,0,0,1-.189-.05.235.235,0,0,1-.069-.2l.01-.957q0-.182.083-.214a.429.429,0,0,1,.183-.032l1.977.02.081-7.32a.313.313,0,0,1,.054-.208.28.28,0,0,1,.2-.054l1.346.016a.263.263,0,0,1,.193.058.287.287,0,0,1,.052.208l-.105,9.8a.34.34,0,0,1-.054.216A.329.329,0,0,1,66.319,87.02Z" transform="translate(55.237 75.503)" fill="none" stroke="#1a1818" stroke-width="0.4"/>
      <path id="패스_42" data-name="패스 42" d="M64.935,87.971a.561.561,0,0,1-.266-.024c-.054-.022-.085-.1-.1-.228l-.067-.982a.454.454,0,0,1,.048-.26,2,2,0,0,1,.143-.226l1.749-2.568a17.593,17.593,0,0,0,1.383-2.32,3.093,3.093,0,0,0,.377-1.4,1.342,1.342,0,0,0-.343-.879,1.179,1.179,0,0,0-.836-.331,2.39,2.39,0,0,0-1,.181,5.892,5.892,0,0,0-1.107.619c-.115.083-.2.113-.25.1a.213.213,0,0,1-.109-.153l-.322-1.2a.27.27,0,0,1,0-.181.594.594,0,0,1,.175-.191,3.288,3.288,0,0,1,.544-.365,5.1,5.1,0,0,1,.633-.294,4.221,4.221,0,0,1,.653-.2,4.413,4.413,0,0,1,.587-.091,3.564,3.564,0,0,1,1.2.113,2.62,2.62,0,0,1,1.715,1.409,3.391,3.391,0,0,1,.327,1.3,3.433,3.433,0,0,1-.173,1.32,8.259,8.259,0,0,1-.556,1.31A13.144,13.144,0,0,1,68.6,83.65c-.268.393-.51.752-.726,1.072-.133.214-.3.449-.484.7s-.359.488-.514.7l3.471-.24c.131-.01.212.008.248.054a.517.517,0,0,1,.064.258l.071,1.038a.452.452,0,0,1-.034.274c-.032.044-.109.069-.232.079Z" transform="translate(63.234 75.782)" fill="#fff"/>
      <path id="패스_43" data-name="패스 43" d="M64.935,87.971a.561.561,0,0,1-.266-.024c-.054-.022-.085-.1-.1-.228l-.067-.982a.454.454,0,0,1,.048-.26,2,2,0,0,1,.143-.226l1.749-2.568a17.593,17.593,0,0,0,1.383-2.32,3.093,3.093,0,0,0,.377-1.4,1.342,1.342,0,0,0-.343-.879,1.179,1.179,0,0,0-.836-.331,2.39,2.39,0,0,0-1,.181,5.892,5.892,0,0,0-1.107.619c-.115.083-.2.113-.25.1a.213.213,0,0,1-.109-.153l-.322-1.2a.27.27,0,0,1,0-.181.594.594,0,0,1,.175-.191,3.288,3.288,0,0,1,.544-.365,5.1,5.1,0,0,1,.633-.294,4.221,4.221,0,0,1,.653-.2,4.413,4.413,0,0,1,.587-.091,3.564,3.564,0,0,1,1.2.113,2.62,2.62,0,0,1,1.715,1.409,3.391,3.391,0,0,1,.327,1.3,3.433,3.433,0,0,1-.173,1.32,8.259,8.259,0,0,1-.556,1.31A13.144,13.144,0,0,1,68.6,83.65c-.268.393-.51.752-.726,1.072-.133.214-.3.449-.484.7s-.359.488-.514.7l3.471-.24c.131-.01.212.008.248.054a.517.517,0,0,1,.064.258l.071,1.038a.452.452,0,0,1-.034.274c-.032.044-.109.069-.232.079Z" transform="translate(63.234 75.782)" fill="none" stroke="#1a1818" stroke-width="0.4"/>
      <path id="패스_44" data-name="패스 44" d="M71.8,87.6a2.877,2.877,0,0,1-1.562-.228,3.083,3.083,0,0,1-1.175-1,5.61,5.61,0,0,1-.794-1.663,11.949,11.949,0,0,1-.443-2.233c-.04-.369-.064-.76-.073-1.179a9.008,9.008,0,0,1,.058-1.246,6.75,6.75,0,0,1,.252-1.207,3.891,3.891,0,0,1,.51-1.052,2.761,2.761,0,0,1,.83-.78,2.849,2.849,0,0,1,1.209-.389,2.811,2.811,0,0,1,1.26.121,2.843,2.843,0,0,1,.971.585,3.649,3.649,0,0,1,.716.921,7.141,7.141,0,0,1,.5,1.129,9.7,9.7,0,0,1,.324,1.215c.079.411.137.794.177,1.153a11.9,11.9,0,0,1,.046,2.267,5.7,5.7,0,0,1-.421,1.8,3.11,3.11,0,0,1-.921,1.229A2.8,2.8,0,0,1,71.8,87.6M70.8,78.423a1.151,1.151,0,0,0-.6.246,1.461,1.461,0,0,0-.439.667,4.35,4.35,0,0,0-.216,1.183,12.569,12.569,0,0,0,.383,3.529,4.174,4.174,0,0,0,.462,1.1,1.492,1.492,0,0,0,.57.552,1.167,1.167,0,0,0,.635.113,1.144,1.144,0,0,0,.6-.246,1.49,1.49,0,0,0,.441-.661,4.27,4.27,0,0,0,.216-1.173,12.716,12.716,0,0,0-.381-3.531,4.292,4.292,0,0,0-.466-1.107,1.43,1.43,0,0,0-.57-.558,1.146,1.146,0,0,0-.635-.113" transform="translate(66.713 75.437)" fill="#fff"/>
      <path id="패스_45" data-name="패스 45" d="M71.8,87.6a2.877,2.877,0,0,1-1.562-.228,3.083,3.083,0,0,1-1.175-1,5.61,5.61,0,0,1-.794-1.663,11.949,11.949,0,0,1-.443-2.233c-.04-.369-.064-.76-.073-1.179a9.008,9.008,0,0,1,.058-1.246,6.75,6.75,0,0,1,.252-1.207,3.891,3.891,0,0,1,.51-1.052,2.761,2.761,0,0,1,.83-.78,2.849,2.849,0,0,1,1.209-.389,2.811,2.811,0,0,1,1.26.121,2.843,2.843,0,0,1,.971.585,3.649,3.649,0,0,1,.716.921,7.141,7.141,0,0,1,.5,1.129,9.7,9.7,0,0,1,.324,1.215c.079.411.137.794.177,1.153a11.9,11.9,0,0,1,.046,2.267,5.7,5.7,0,0,1-.421,1.8,3.11,3.11,0,0,1-.921,1.229A2.8,2.8,0,0,1,71.8,87.6ZM70.8,78.423a1.151,1.151,0,0,0-.6.246,1.461,1.461,0,0,0-.439.667,4.35,4.35,0,0,0-.216,1.183,12.569,12.569,0,0,0,.383,3.529,4.174,4.174,0,0,0,.462,1.1,1.492,1.492,0,0,0,.57.552,1.167,1.167,0,0,0,.635.113,1.144,1.144,0,0,0,.6-.246,1.49,1.49,0,0,0,.441-.661,4.27,4.27,0,0,0,.216-1.173,12.716,12.716,0,0,0-.381-3.531,4.292,4.292,0,0,0-.466-1.107,1.43,1.43,0,0,0-.57-.558A1.146,1.146,0,0,0,70.8,78.423Z" transform="translate(66.713 75.437)" fill="none" stroke="#1a1818" stroke-width="0.4"/>
      <path id="패스_46" data-name="패스 46" d="M72.588,87.37a.6.6,0,0,1-.266,0c-.056-.022-.1-.1-.113-.222l-.145-.974a.472.472,0,0,1,.028-.262,2.3,2.3,0,0,1,.125-.236l1.546-2.7a17.809,17.809,0,0,0,1.2-2.419,3.089,3.089,0,0,0,.268-1.427,1.35,1.35,0,0,0-.413-.849,1.17,1.17,0,0,0-.859-.266,2.384,2.384,0,0,0-.986.258,5.764,5.764,0,0,0-1.054.7c-.111.091-.193.129-.242.113a.21.21,0,0,1-.121-.143l-.413-1.173a.267.267,0,0,1-.02-.179.612.612,0,0,1,.163-.206,3.155,3.155,0,0,1,.512-.4,5.5,5.5,0,0,1,.607-.343,4.35,4.35,0,0,1,.637-.248,4.182,4.182,0,0,1,.58-.135,3.612,3.612,0,0,1,1.207.018,2.616,2.616,0,0,1,1.82,1.272,3.4,3.4,0,0,1,.427,1.268A3.475,3.475,0,0,1,77,80.142a8.172,8.172,0,0,1-.453,1.35,13.193,13.193,0,0,1-.641,1.288c-.236.413-.451.788-.639,1.123-.119.222-.262.468-.431.736s-.322.516-.456.74l3.439-.51c.131-.02.214-.008.252.034a.523.523,0,0,1,.083.254l.153,1.028a.457.457,0,0,1-.012.276.325.325,0,0,1-.226.1Z" transform="translate(70.025 75.048)" fill="#fff"/>
      <path id="패스_47" data-name="패스 47" d="M72.588,87.37a.6.6,0,0,1-.266,0c-.056-.022-.1-.1-.113-.222l-.145-.974a.472.472,0,0,1,.028-.262,2.3,2.3,0,0,1,.125-.236l1.546-2.7a17.809,17.809,0,0,0,1.2-2.419,3.089,3.089,0,0,0,.268-1.427,1.35,1.35,0,0,0-.413-.849,1.17,1.17,0,0,0-.859-.266,2.384,2.384,0,0,0-.986.258,5.764,5.764,0,0,0-1.054.7c-.111.091-.193.129-.242.113a.21.21,0,0,1-.121-.143l-.413-1.173a.267.267,0,0,1-.02-.179.612.612,0,0,1,.163-.206,3.155,3.155,0,0,1,.512-.4,5.5,5.5,0,0,1,.607-.343,4.35,4.35,0,0,1,.637-.248,4.182,4.182,0,0,1,.58-.135,3.612,3.612,0,0,1,1.207.018,2.616,2.616,0,0,1,1.82,1.272,3.4,3.4,0,0,1,.427,1.268A3.475,3.475,0,0,1,77,80.142a8.172,8.172,0,0,1-.453,1.35,13.193,13.193,0,0,1-.641,1.288c-.236.413-.451.788-.639,1.123-.119.222-.262.468-.431.736s-.322.516-.456.74l3.439-.51c.131-.02.214-.008.252.034a.523.523,0,0,1,.083.254l.153,1.028a.457.457,0,0,1-.012.276.325.325,0,0,1-.226.1Z" transform="translate(70.025 75.048)" fill="none" stroke="#1a1818" stroke-width="0.4"/>
      <path id="패스_48" data-name="패스 48" d="M80.962,83.726l.377,1.991a.588.588,0,0,1,.01.3c-.024.048-.107.083-.254.113l-1.074.2c-.147.028-.24.02-.278-.024a.566.566,0,0,1-.1-.272l-.377-1.989-3.948.748a.408.408,0,0,1-.248,0c-.044-.024-.079-.1-.1-.212l-.185-.969a.5.5,0,0,1,.018-.264c.032-.077.062-.155.089-.236q.685-1.777,1.346-3.59t1.4-3.561a.357.357,0,0,1,.109-.171.5.5,0,0,1,.193-.071l1.193-.226c.155-.028.242-.014.262.044a2.065,2.065,0,0,1,.056.22l1.193,6.3,1.06-.2a.438.438,0,0,1,.248,0c.034.02.067.107.1.262l.2,1.064c.032.155.028.248-.008.276a.448.448,0,0,1-.218.077Zm-4.317-.917,2.3-.439-.709-3.745Z" transform="translate(73.632 74.323)" fill="#fff"/>
      <path id="패스_49" data-name="패스 49" d="M80.962,83.726l.377,1.991a.588.588,0,0,1,.01.3c-.024.048-.107.083-.254.113l-1.074.2c-.147.028-.24.02-.278-.024a.566.566,0,0,1-.1-.272l-.377-1.989-3.948.748a.408.408,0,0,1-.248,0c-.044-.024-.079-.1-.1-.212l-.185-.969a.5.5,0,0,1,.018-.264c.032-.077.062-.155.089-.236q.685-1.777,1.346-3.59t1.4-3.561a.357.357,0,0,1,.109-.171.5.5,0,0,1,.193-.071l1.193-.226c.155-.028.242-.014.262.044a2.065,2.065,0,0,1,.056.22l1.193,6.3,1.06-.2a.438.438,0,0,1,.248,0c.034.02.067.107.1.262l.2,1.064c.032.155.028.248-.008.276a.448.448,0,0,1-.218.077Zm-4.317-.917,2.3-.439-.709-3.745Z" transform="translate(73.632 74.323)" fill="none" stroke="#1a1818" stroke-width="0.4"/>
      <path id="패스_50" data-name="패스 50" d="M80.4,82.209a1.116,1.116,0,0,1-.9-.173,1.317,1.317,0,0,1-.381-1.733,1.166,1.166,0,0,1,1.647-.363,1.251,1.251,0,0,1,.524.794,1.229,1.229,0,0,1-.145.939,1.11,1.11,0,0,1-.744.536" transform="translate(77.734 78.52)" fill="#fff"/>
      <path id="패스_51" data-name="패스 51" d="M80.4,82.209a1.116,1.116,0,0,1-.9-.173,1.317,1.317,0,0,1-.381-1.733,1.166,1.166,0,0,1,1.647-.363,1.251,1.251,0,0,1,.524.794,1.229,1.229,0,0,1-.145.939A1.11,1.11,0,0,1,80.4,82.209Z" transform="translate(77.734 78.52)" fill="none" stroke="#1a1818" stroke-width="0.4"/>
      <path id="패스_52" data-name="패스 52" d="M84.637,85.3a2.889,2.889,0,0,1-1.578-.01,3.058,3.058,0,0,1-1.3-.826,5.56,5.56,0,0,1-1.02-1.538A11.886,11.886,0,0,1,80,80.774c-.089-.357-.169-.744-.236-1.155a9.039,9.039,0,0,1-.115-1.244,6.649,6.649,0,0,1,.083-1.229,3.765,3.765,0,0,1,.359-1.111,2.844,2.844,0,0,1,.714-.889,2.886,2.886,0,0,1,1.143-.552,2.851,2.851,0,0,1,1.264-.052,2.82,2.82,0,0,1,1.042.445,3.643,3.643,0,0,1,.836.814,6.754,6.754,0,0,1,.651,1.05,9.487,9.487,0,0,1,.49,1.157q.2.592.333,1.117a11.807,11.807,0,0,1,.359,2.239,5.71,5.71,0,0,1-.169,1.838,3.1,3.1,0,0,1-.742,1.346,2.823,2.823,0,0,1-1.371.752m-2.253-8.957a1.154,1.154,0,0,0-.556.325,1.472,1.472,0,0,0-.341.722,4.338,4.338,0,0,0-.054,1.2,12.742,12.742,0,0,0,.867,3.441,4.129,4.129,0,0,0,.611,1.026,1.458,1.458,0,0,0,.641.468,1.146,1.146,0,0,0,.643.024,1.13,1.13,0,0,0,.556-.325,1.451,1.451,0,0,0,.343-.716,4.176,4.176,0,0,0,.056-1.191,10.8,10.8,0,0,0-.316-1.76,10.357,10.357,0,0,0-.552-1.685,4.316,4.316,0,0,0-.613-1.03,1.44,1.44,0,0,0-.641-.474,1.172,1.172,0,0,0-.645-.026" transform="translate(78.423 73.354)" fill="#fff"/>
      <path id="패스_53" data-name="패스 53" d="M84.637,85.3a2.889,2.889,0,0,1-1.578-.01,3.058,3.058,0,0,1-1.3-.826,5.56,5.56,0,0,1-1.02-1.538A11.886,11.886,0,0,1,80,80.774c-.089-.357-.169-.744-.236-1.155a9.039,9.039,0,0,1-.115-1.244,6.649,6.649,0,0,1,.083-1.229,3.765,3.765,0,0,1,.359-1.111,2.844,2.844,0,0,1,.714-.889,2.886,2.886,0,0,1,1.143-.552,2.851,2.851,0,0,1,1.264-.052,2.82,2.82,0,0,1,1.042.445,3.643,3.643,0,0,1,.836.814,6.754,6.754,0,0,1,.651,1.05,9.487,9.487,0,0,1,.49,1.157q.2.592.333,1.117a11.807,11.807,0,0,1,.359,2.239,5.71,5.71,0,0,1-.169,1.838,3.1,3.1,0,0,1-.742,1.346A2.823,2.823,0,0,1,84.637,85.3Zm-2.253-8.957a1.154,1.154,0,0,0-.556.325,1.472,1.472,0,0,0-.341.722,4.338,4.338,0,0,0-.054,1.2,12.742,12.742,0,0,0,.867,3.441,4.129,4.129,0,0,0,.611,1.026,1.458,1.458,0,0,0,.641.468,1.146,1.146,0,0,0,.643.024,1.13,1.13,0,0,0,.556-.325,1.451,1.451,0,0,0,.343-.716,4.176,4.176,0,0,0,.056-1.191,10.8,10.8,0,0,0-.316-1.76,10.357,10.357,0,0,0-.552-1.685,4.316,4.316,0,0,0-.613-1.03,1.44,1.44,0,0,0-.641-.474A1.172,1.172,0,0,0,82.385,76.342Z" transform="translate(78.423 73.354)" fill="none" stroke="#1a1818" stroke-width="0.4"/>
      <path id="패스_54" data-name="패스 54" d="M89.463,81.436l.578,1.941a.6.6,0,0,1,.04.3c-.016.05-.1.1-.24.139l-1.048.312c-.143.042-.236.042-.282,0a.627.627,0,0,1-.123-.26l-.578-1.941-3.85,1.145a.385.385,0,0,1-.248.024c-.048-.02-.087-.087-.123-.2l-.28-.945a.505.505,0,0,1-.012-.264c.024-.079.046-.161.067-.244q.5-1.84.971-3.711t1.03-3.684a.366.366,0,0,1,.091-.179.494.494,0,0,1,.187-.093l1.161-.345c.153-.044.24-.04.266.016a1.389,1.389,0,0,1,.079.214L88.976,79.8l1.034-.308a.416.416,0,0,1,.244-.032c.04.018.079.1.125.254l.308,1.036c.046.151.052.244.022.276a.538.538,0,0,1-.212.1Zm-4.388-.472,2.249-.669-1.09-3.656Z" transform="translate(82.009 72.279)" fill="#fff"/>
      <path id="패스_55" data-name="패스 55" d="M89.463,81.436l.578,1.941a.6.6,0,0,1,.04.3c-.016.05-.1.1-.24.139l-1.048.312c-.143.042-.236.042-.282,0a.627.627,0,0,1-.123-.26l-.578-1.941-3.85,1.145a.385.385,0,0,1-.248.024c-.048-.02-.087-.087-.123-.2l-.28-.945a.505.505,0,0,1-.012-.264c.024-.079.046-.161.067-.244q.5-1.84.971-3.711t1.03-3.684a.366.366,0,0,1,.091-.179.494.494,0,0,1,.187-.093l1.161-.345c.153-.044.24-.04.266.016a1.389,1.389,0,0,1,.079.214L88.976,79.8l1.034-.308a.416.416,0,0,1,.244-.032c.04.018.079.1.125.254l.308,1.036c.046.151.052.244.022.276a.538.538,0,0,1-.212.1Zm-4.388-.472,2.249-.669-1.09-3.656Z" transform="translate(82.009 72.279)" fill="none" stroke="#1a1818" stroke-width="0.4"/>
      <path id="패스_56" data-name="패스 56" d="M89.113,79.807a1.11,1.11,0,0,1-.915-.075A1.236,1.236,0,0,1,87.593,79a1.253,1.253,0,0,1,.046-.953,1.167,1.167,0,0,1,1.6-.53A1.321,1.321,0,0,1,89.8,79.2a1.117,1.117,0,0,1-.685.607" transform="translate(86.181 76.192)" fill="#fff"/>
      <path id="패스_57" data-name="패스 57" d="M89.113,79.807a1.11,1.11,0,0,1-.915-.075A1.236,1.236,0,0,1,87.593,79a1.253,1.253,0,0,1,.046-.953,1.167,1.167,0,0,1,1.6-.53A1.321,1.321,0,0,1,89.8,79.2,1.117,1.117,0,0,1,89.113,79.807Z" transform="translate(86.181 76.192)" fill="none" stroke="#1a1818" stroke-width="0.4"/>
      <path id="패스_58" data-name="패스 58" d="M92.88,82.56a.252.252,0,0,1-.206.01.378.378,0,0,1-.129-.2L89.8,74.951l-.472,1.04c-.083.179-.181.232-.294.155l-1.052-.6c-.071-.044-.107-.091-.1-.147a.617.617,0,0,1,.079-.23l1.209-2.574a.488.488,0,0,1,.254-.228l.816-.3q.271-.1.345-.054a.917.917,0,0,1,.193.371l3.461,9.366a.37.37,0,0,1,.026.226.233.233,0,0,1-.161.131Z" transform="translate(86.535 70.895)" fill="#fff"/>
      <path id="패스_59" data-name="패스 59" d="M92.88,82.56a.252.252,0,0,1-.206.01.378.378,0,0,1-.129-.2L89.8,74.951l-.472,1.04c-.083.179-.181.232-.294.155l-1.052-.6c-.071-.044-.107-.091-.1-.147a.617.617,0,0,1,.079-.23l1.209-2.574a.488.488,0,0,1,.254-.228l.816-.3q.271-.1.345-.054a.917.917,0,0,1,.193.371l3.461,9.366a.37.37,0,0,1,.026.226.233.233,0,0,1-.161.131Z" transform="translate(86.535 70.895)" fill="none" stroke="#1a1818" stroke-width="0.4"/>
      <path id="패스_60" data-name="패스 60" d="M97.695,78.161l.792,1.864a.588.588,0,0,1,.073.292c-.012.052-.087.105-.222.163l-1.006.429q-.205.086-.28.036A.642.642,0,0,1,96.9,80.7l-.792-1.864-3.7,1.572a.42.42,0,0,1-.246.052c-.048-.014-.1-.077-.143-.187l-.385-.907A.486.486,0,0,1,91.6,79.1c.014-.081.028-.165.04-.25q.286-1.884.546-3.795t.613-3.779a.339.339,0,0,1,.069-.189.481.481,0,0,1,.175-.111l1.113-.474c.147-.062.236-.066.266-.016a1.8,1.8,0,0,1,.1.206l2.507,5.895.994-.423a.424.424,0,0,1,.24-.058c.038.014.089.093.151.238l.423.994c.062.145.079.236.05.274a.5.5,0,0,1-.2.121Zm-4.414.024,2.159-.919-1.492-3.507Z" transform="translate(90.19 69.378)" fill="#fff"/>
      <path id="패스_61" data-name="패스 61" d="M97.695,78.161l.792,1.864a.588.588,0,0,1,.073.292c-.012.052-.087.105-.222.163l-1.006.429q-.205.086-.28.036A.642.642,0,0,1,96.9,80.7l-.792-1.864-3.7,1.572a.42.42,0,0,1-.246.052c-.048-.014-.1-.077-.143-.187l-.385-.907A.486.486,0,0,1,91.6,79.1c.014-.081.028-.165.04-.25q.286-1.884.546-3.795t.613-3.779a.339.339,0,0,1,.069-.189.481.481,0,0,1,.175-.111l1.113-.474c.147-.062.236-.066.266-.016a1.8,1.8,0,0,1,.1.206l2.507,5.895.994-.423a.424.424,0,0,1,.24-.058c.038.014.089.093.151.238l.423.994c.062.145.079.236.05.274a.5.5,0,0,1-.2.121Zm-4.414.024,2.159-.919-1.492-3.507Z" transform="translate(90.19 69.378)" fill="none" stroke="#1a1818" stroke-width="0.4"/>
      <path id="패스_62" data-name="패스 62" d="M100.9,71.575a2.7,2.7,0,0,1-.367,1.151,1.978,1.978,0,0,1-.847.77,2.316,2.316,0,0,1-.718.212c-.264.038-.532.064-.8.083s-.522.04-.754.06a1.7,1.7,0,0,0-.576.143,1,1,0,0,0-.427.494,3.5,3.5,0,0,0-.262.8c-.022.113-.06.173-.109.177a.465.465,0,0,1-.252-.109l-.8-.532a.228.228,0,0,1-.121-.127.679.679,0,0,1-.026-.141,2.24,2.24,0,0,1,.383-1.169,2.372,2.372,0,0,1,.945-.792,2.6,2.6,0,0,1,.714-.22c.27-.044.536-.081.8-.109s.5-.056.718-.073a1.527,1.527,0,0,0,.508-.119.678.678,0,0,0,.248-.212,1.569,1.569,0,0,0,.181-.322,3.515,3.515,0,0,0,.129-.347c.038-.117.069-.216.1-.3a.424.424,0,0,1,.093-.183c.032-.028.1-.014.2.038l.917.526a.268.268,0,0,1,.123.115.484.484,0,0,1,.01.189" transform="translate(93.389 69.612)" fill="#fff"/>
      <path id="패스_63" data-name="패스 63" d="M100.9,71.575a2.7,2.7,0,0,1-.367,1.151,1.978,1.978,0,0,1-.847.77,2.316,2.316,0,0,1-.718.212c-.264.038-.532.064-.8.083s-.522.04-.754.06a1.7,1.7,0,0,0-.576.143,1,1,0,0,0-.427.494,3.5,3.5,0,0,0-.262.8c-.022.113-.06.173-.109.177a.465.465,0,0,1-.252-.109l-.8-.532a.228.228,0,0,1-.121-.127.679.679,0,0,1-.026-.141,2.24,2.24,0,0,1,.383-1.169,2.372,2.372,0,0,1,.945-.792,2.6,2.6,0,0,1,.714-.22c.27-.044.536-.081.8-.109s.5-.056.718-.073a1.527,1.527,0,0,0,.508-.119.678.678,0,0,0,.248-.212,1.569,1.569,0,0,0,.181-.322,3.515,3.515,0,0,0,.129-.347c.038-.117.069-.216.1-.3a.424.424,0,0,1,.093-.183c.032-.028.1-.014.2.038l.917.526a.268.268,0,0,1,.123.115A.484.484,0,0,1,100.9,71.575Z" transform="translate(93.389 69.612)" fill="none" stroke="#1a1818" stroke-width="0.4"/>
      <path id="패스_64" data-name="패스 64" d="M102.077,78.777a.644.644,0,0,1-.25.093q-.089,0-.185-.167l-.482-.859a.5.5,0,0,1-.067-.258,2.257,2.257,0,0,1,.034-.262l.486-3.07a18.162,18.162,0,0,0,.258-2.689,3.089,3.089,0,0,0-.256-1.429,1.337,1.337,0,0,0-.689-.647,1.166,1.166,0,0,0-.9.058,2.417,2.417,0,0,0-.832.591,5.822,5.822,0,0,0-.734,1.032c-.071.123-.135.189-.189.193a.211.211,0,0,1-.163-.091l-.8-.949a.271.271,0,0,1-.081-.161.592.592,0,0,1,.077-.25,3.434,3.434,0,0,1,.335-.562,5.218,5.218,0,0,1,.447-.538,4.531,4.531,0,0,1,.506-.456,4.043,4.043,0,0,1,.492-.331,3.664,3.664,0,0,1,1.135-.413,2.689,2.689,0,0,1,1.127.03,2.737,2.737,0,0,1,1.026.51,3.551,3.551,0,0,1,1.258,2.3,8.415,8.415,0,0,1,.056,1.419,12.6,12.6,0,0,1-.141,1.433q-.11.7-.2,1.278c-.032.25-.077.53-.141.842s-.117.6-.163.853l3.035-1.7c.113-.064.194-.083.246-.06a.564.564,0,0,1,.169.208l.506.907a.455.455,0,0,1,.087.262c-.01.054-.069.109-.175.171Z" transform="translate(95.74 66.531)" fill="#fff"/>
      <path id="패스_65" data-name="패스 65" d="M102.077,78.777a.644.644,0,0,1-.25.093q-.089,0-.185-.167l-.482-.859a.5.5,0,0,1-.067-.258,2.257,2.257,0,0,1,.034-.262l.486-3.07a18.162,18.162,0,0,0,.258-2.689,3.089,3.089,0,0,0-.256-1.429,1.337,1.337,0,0,0-.689-.647,1.166,1.166,0,0,0-.9.058,2.417,2.417,0,0,0-.832.591,5.822,5.822,0,0,0-.734,1.032c-.071.123-.135.189-.189.193a.211.211,0,0,1-.163-.091l-.8-.949a.271.271,0,0,1-.081-.161.592.592,0,0,1,.077-.25,3.434,3.434,0,0,1,.335-.562,5.218,5.218,0,0,1,.447-.538,4.531,4.531,0,0,1,.506-.456,4.043,4.043,0,0,1,.492-.331,3.664,3.664,0,0,1,1.135-.413,2.689,2.689,0,0,1,1.127.03,2.737,2.737,0,0,1,1.026.51,3.551,3.551,0,0,1,1.258,2.3,8.415,8.415,0,0,1,.056,1.419,12.6,12.6,0,0,1-.141,1.433q-.11.7-.2,1.278c-.032.25-.077.53-.141.842s-.117.6-.163.853l3.035-1.7c.113-.064.194-.083.246-.06a.564.564,0,0,1,.169.208l.506.907a.455.455,0,0,1,.087.262c-.01.054-.069.109-.175.171Z" transform="translate(95.74 66.531)" fill="none" stroke="#1a1818" stroke-width="0.4"/>
      <path id="패스_66" data-name="패스 66" d="M107.91,75.434a2.868,2.868,0,0,1-1.5.49,3.076,3.076,0,0,1-1.494-.371,5.577,5.577,0,0,1-1.451-1.137,11.848,11.848,0,0,1-1.389-1.8c-.2-.312-.395-.651-.587-1.022a8.61,8.61,0,0,1-.5-1.143,6.661,6.661,0,0,1-.312-1.191,3.792,3.792,0,0,1-.01-1.169,2.857,2.857,0,0,1,3.62-2.312,3.625,3.625,0,0,1,1.048.508,6.96,6.96,0,0,1,.953.79,8.894,8.894,0,0,1,.828.945q.381.5.671.951a11.783,11.783,0,0,1,1.05,2.012,5.7,5.7,0,0,1,.421,1.8,3.117,3.117,0,0,1-.28,1.51,2.791,2.791,0,0,1-1.062,1.147m-4.97-7.782a1.162,1.162,0,0,0-.427.484,1.491,1.491,0,0,0-.1.794,4.408,4.408,0,0,0,.331,1.155,10.669,10.669,0,0,0,.845,1.556,10.486,10.486,0,0,0,1.064,1.433,4.237,4.237,0,0,0,.905.782,1.468,1.468,0,0,0,.756.24,1.149,1.149,0,0,0,1.044-.667,1.462,1.462,0,0,0,.1-.786,4.041,4.041,0,0,0-.325-1.147,12.607,12.607,0,0,0-1.911-2.993,4.188,4.188,0,0,0-.907-.786,1.466,1.466,0,0,0-.758-.248,1.149,1.149,0,0,0-.619.183" transform="translate(99.082 64.656)" fill="#fff"/>
      <path id="패스_67" data-name="패스 67" d="M107.91,75.434a2.868,2.868,0,0,1-1.5.49,3.076,3.076,0,0,1-1.494-.371,5.577,5.577,0,0,1-1.451-1.137,11.848,11.848,0,0,1-1.389-1.8c-.2-.312-.395-.651-.587-1.022a8.61,8.61,0,0,1-.5-1.143,6.661,6.661,0,0,1-.312-1.191,3.792,3.792,0,0,1-.01-1.169,2.857,2.857,0,0,1,3.62-2.312,3.625,3.625,0,0,1,1.048.508,6.96,6.96,0,0,1,.953.79,8.894,8.894,0,0,1,.828.945q.381.5.671.951a11.783,11.783,0,0,1,1.05,2.012,5.7,5.7,0,0,1,.421,1.8,3.117,3.117,0,0,1-.28,1.51A2.791,2.791,0,0,1,107.91,75.434Zm-4.97-7.782a1.162,1.162,0,0,0-.427.484,1.491,1.491,0,0,0-.1.794,4.408,4.408,0,0,0,.331,1.155,10.669,10.669,0,0,0,.845,1.556,10.486,10.486,0,0,0,1.064,1.433,4.237,4.237,0,0,0,.905.782,1.468,1.468,0,0,0,.756.24,1.149,1.149,0,0,0,1.044-.667,1.462,1.462,0,0,0,.1-.786,4.041,4.041,0,0,0-.325-1.147,12.607,12.607,0,0,0-1.911-2.993,4.188,4.188,0,0,0-.907-.786,1.466,1.466,0,0,0-.758-.248A1.149,1.149,0,0,0,102.941,67.652Z" transform="translate(99.082 64.656)" fill="none" stroke="#1a1818" stroke-width="0.4"/>
      <path id="패스_68" data-name="패스 68" d="M108.955,74.8a.654.654,0,0,1-.236.123c-.06.006-.129-.042-.2-.147l-.58-.794a.466.466,0,0,1-.1-.246,2.024,2.024,0,0,1,0-.268l.115-3.1a17.777,17.777,0,0,0-.062-2.7,3.1,3.1,0,0,0-.427-1.387,1.342,1.342,0,0,0-.76-.562,1.175,1.175,0,0,0-.881.163,2.352,2.352,0,0,0-.756.689,5.9,5.9,0,0,0-.607,1.109c-.056.135-.109.2-.163.214a.215.215,0,0,1-.173-.071l-.911-.845a.261.261,0,0,1-.1-.151.576.576,0,0,1,.048-.256,3.137,3.137,0,0,1,.266-.6,4.832,4.832,0,0,1,.379-.585,4.382,4.382,0,0,1,.449-.516,4.067,4.067,0,0,1,.449-.387,3.64,3.64,0,0,1,1.078-.548,2.633,2.633,0,0,1,2.2.284,3.386,3.386,0,0,1,.967.925,3.449,3.449,0,0,1,.556,1.207,8.4,8.4,0,0,1,.226,1.405,12.919,12.919,0,0,1,.028,1.439c-.018.474-.03.907-.042,1.292,0,.252-.014.538-.04.853s-.046.605-.06.865l2.808-2.048c.107-.077.187-.107.238-.087a.52.52,0,0,1,.193.187l.611.84a.451.451,0,0,1,.119.25q-.006.08-.155.191Z" transform="translate(101.535 62.83)" fill="#fff"/>
      <path id="패스_69" data-name="패스 69" d="M108.955,74.8a.654.654,0,0,1-.236.123c-.06.006-.129-.042-.2-.147l-.58-.794a.466.466,0,0,1-.1-.246,2.024,2.024,0,0,1,0-.268l.115-3.1a17.777,17.777,0,0,0-.062-2.7,3.1,3.1,0,0,0-.427-1.387,1.342,1.342,0,0,0-.76-.562,1.175,1.175,0,0,0-.881.163,2.352,2.352,0,0,0-.756.689,5.9,5.9,0,0,0-.607,1.109c-.056.135-.109.2-.163.214a.215.215,0,0,1-.173-.071l-.911-.845a.261.261,0,0,1-.1-.151.576.576,0,0,1,.048-.256,3.137,3.137,0,0,1,.266-.6,4.832,4.832,0,0,1,.379-.585,4.382,4.382,0,0,1,.449-.516,4.067,4.067,0,0,1,.449-.387,3.64,3.64,0,0,1,1.078-.548,2.633,2.633,0,0,1,2.2.284,3.386,3.386,0,0,1,.967.925,3.449,3.449,0,0,1,.556,1.207,8.4,8.4,0,0,1,.226,1.405,12.919,12.919,0,0,1,.028,1.439c-.018.474-.03.907-.042,1.292,0,.252-.014.538-.04.853s-.046.605-.06.865l2.808-2.048c.107-.077.187-.107.238-.087a.52.52,0,0,1,.193.187l.611.84a.451.451,0,0,1,.119.25q-.006.08-.155.191Z" transform="translate(101.535 62.83)" fill="none" stroke="#1a1818" stroke-width="0.4"/>
      <path id="패스_70" data-name="패스 70" d="M115.731,69.068a2.928,2.928,0,0,1-.454,1.282,4.533,4.533,0,0,1-.957,1.092,4.028,4.028,0,0,1-.433.316c-.167.111-.339.212-.514.308a5.793,5.793,0,0,1-.53.252,2.658,2.658,0,0,1-.462.153.431.431,0,0,1-.169.016.374.374,0,0,1-.151-.129l-.838-1c-.071-.085-.1-.151-.087-.2s.066-.083.157-.111a4.311,4.311,0,0,0,.454-.175q.25-.11.518-.244a5.982,5.982,0,0,0,.526-.294,4.769,4.769,0,0,0,.46-.331,1.739,1.739,0,0,0,.663-1.189,1.774,1.774,0,0,0-.466-1.328,1.966,1.966,0,0,0-1.127-.718,1.651,1.651,0,0,0-1.365.492,4.4,4.4,0,0,0-.593.613,5.106,5.106,0,0,0-.506.738,1.575,1.575,0,0,1-.123.222.415.415,0,0,1-.155.147.2.2,0,0,1-.189,0,.77.77,0,0,1-.25-.214l-3.253-3.987c-.089-.107-.123-.191-.109-.254a.6.6,0,0,1,.2-.236l3.666-3.068q.122-.1.2-.083a.348.348,0,0,1,.173.135l.738.883a.475.475,0,0,1,.113.194c.01.054-.03.115-.117.189l-2.626,2.2,1.411,1.768a3.209,3.209,0,0,1,.308-.359c.117-.115.23-.22.345-.316a3.631,3.631,0,0,1,1.1-.643,2.941,2.941,0,0,1,1.183-.177,2.869,2.869,0,0,1,1.175.337,3.565,3.565,0,0,1,1.078.9,3.8,3.8,0,0,1,1.008,2.826" transform="translate(104.156 60.197)" fill="#fff"/>
      <path id="패스_71" data-name="패스 71" d="M115.731,69.068a2.928,2.928,0,0,1-.454,1.282,4.533,4.533,0,0,1-.957,1.092,4.028,4.028,0,0,1-.433.316c-.167.111-.339.212-.514.308a5.793,5.793,0,0,1-.53.252,2.658,2.658,0,0,1-.462.153.431.431,0,0,1-.169.016.374.374,0,0,1-.151-.129l-.838-1c-.071-.085-.1-.151-.087-.2s.066-.083.157-.111a4.311,4.311,0,0,0,.454-.175q.25-.11.518-.244a5.982,5.982,0,0,0,.526-.294,4.769,4.769,0,0,0,.46-.331,1.739,1.739,0,0,0,.663-1.189,1.774,1.774,0,0,0-.466-1.328,1.966,1.966,0,0,0-1.127-.718,1.651,1.651,0,0,0-1.365.492,4.4,4.4,0,0,0-.593.613,5.106,5.106,0,0,0-.506.738,1.575,1.575,0,0,1-.123.222.415.415,0,0,1-.155.147.2.2,0,0,1-.189,0,.77.77,0,0,1-.25-.214l-3.253-3.987c-.089-.107-.123-.191-.109-.254a.6.6,0,0,1,.2-.236l3.666-3.068q.122-.1.2-.083a.348.348,0,0,1,.173.135l.738.883a.475.475,0,0,1,.113.194c.01.054-.03.115-.117.189l-2.626,2.2,1.411,1.768a3.209,3.209,0,0,1,.308-.359c.117-.115.23-.22.345-.316a3.631,3.631,0,0,1,1.1-.643,2.941,2.941,0,0,1,1.183-.177,2.869,2.869,0,0,1,1.175.337,3.565,3.565,0,0,1,1.078.9A3.8,3.8,0,0,1,115.731,69.068Z" transform="translate(104.156 60.197)" fill="none" stroke="#1a1818" stroke-width="0.4"/>
      <path id="패스_72" data-name="패스 72" d="M113.659,65.786a1.108,1.108,0,0,1-.863.31,1.321,1.321,0,0,1-1.207-1.3,1.1,1.1,0,0,1,.373-.838,1.118,1.118,0,0,1,.861-.31,1.255,1.255,0,0,1,.855.417,1.241,1.241,0,0,1,.351.883,1.109,1.109,0,0,1-.371.838" transform="translate(109.881 62.672)" fill="#fff"/>
      <path id="패스_73" data-name="패스 73" d="M113.659,65.786a1.108,1.108,0,0,1-.863.31,1.321,1.321,0,0,1-1.207-1.3,1.1,1.1,0,0,1,.373-.838,1.118,1.118,0,0,1,.861-.31,1.255,1.255,0,0,1,.855.417,1.241,1.241,0,0,1,.351.883A1.109,1.109,0,0,1,113.659,65.786Z" transform="translate(109.881 62.672)" fill="none" stroke="#1a1818" stroke-width="0.4"/>
      <path id="패스_74" data-name="패스 74" d="M118.649,66.7a2.881,2.881,0,0,1-1.344.826,3.1,3.1,0,0,1-1.542-.01,5.677,5.677,0,0,1-1.675-.768,12.054,12.054,0,0,1-1.772-1.431q-.4-.384-.812-.853a9.112,9.112,0,0,1-.756-.994,6.744,6.744,0,0,1-.58-1.088,3.78,3.78,0,0,1-.282-1.135,2.77,2.77,0,0,1,.135-1.131,2.839,2.839,0,0,1,.679-1.074,2.783,2.783,0,0,1,1.044-.713,2.832,2.832,0,0,1,1.121-.175A3.662,3.662,0,0,1,114,58.4a6.84,6.84,0,0,1,1.109.546,9.357,9.357,0,0,1,1.026.724q.485.393.875.768a11.835,11.835,0,0,1,1.491,1.711,5.685,5.685,0,0,1,.828,1.649,3.078,3.078,0,0,1,.083,1.532,2.794,2.794,0,0,1-.766,1.367M112,60.294a1.155,1.155,0,0,0-.3.572,1.467,1.467,0,0,0,.093.792,4.2,4.2,0,0,0,.589,1.046,12.613,12.613,0,0,0,2.556,2.463,4.169,4.169,0,0,0,1.064.546,1.468,1.468,0,0,0,.79.06,1.149,1.149,0,0,0,.859-.891,1.486,1.486,0,0,0-.087-.79,4.287,4.287,0,0,0-.585-1.04,10.561,10.561,0,0,0-1.2-1.326,10.7,10.7,0,0,0-1.358-1.137,4.437,4.437,0,0,0-1.068-.552,1.482,1.482,0,0,0-.8-.062,1.157,1.157,0,0,0-.558.32" transform="translate(108.194 57.264)" fill="#fff"/>
      <path id="패스_75" data-name="패스 75" d="M118.649,66.7a2.881,2.881,0,0,1-1.344.826,3.1,3.1,0,0,1-1.542-.01,5.677,5.677,0,0,1-1.675-.768,12.054,12.054,0,0,1-1.772-1.431q-.4-.384-.812-.853a9.112,9.112,0,0,1-.756-.994,6.744,6.744,0,0,1-.58-1.088,3.78,3.78,0,0,1-.282-1.135,2.77,2.77,0,0,1,.135-1.131,2.839,2.839,0,0,1,.679-1.074,2.783,2.783,0,0,1,1.044-.713,2.832,2.832,0,0,1,1.121-.175A3.662,3.662,0,0,1,114,58.4a6.84,6.84,0,0,1,1.109.546,9.357,9.357,0,0,1,1.026.724q.485.393.875.768a11.835,11.835,0,0,1,1.491,1.711,5.685,5.685,0,0,1,.828,1.649,3.078,3.078,0,0,1,.083,1.532A2.794,2.794,0,0,1,118.649,66.7ZM112,60.294a1.155,1.155,0,0,0-.3.572,1.467,1.467,0,0,0,.093.792,4.2,4.2,0,0,0,.589,1.046,12.613,12.613,0,0,0,2.556,2.463,4.169,4.169,0,0,0,1.064.546,1.468,1.468,0,0,0,.79.06,1.149,1.149,0,0,0,.859-.891,1.486,1.486,0,0,0-.087-.79,4.287,4.287,0,0,0-.585-1.04,10.561,10.561,0,0,0-1.2-1.326,10.7,10.7,0,0,0-1.358-1.137,4.437,4.437,0,0,0-1.068-.552,1.482,1.482,0,0,0-.8-.062A1.157,1.157,0,0,0,112,60.294Z" transform="translate(108.194 57.264)" fill="none" stroke="#1a1818" stroke-width="0.4"/>
      <path id="패스_76" data-name="패스 76" d="M120.306,60.568l1.57,1.278c.121.1.191.173.2.222s-.028.133-.123.248l-.691.849c-.093.115-.171.171-.228.161a.642.642,0,0,1-.25-.143l-1.57-1.278-2.534,3.116c-.077.1-.143.151-.193.159s-.119-.02-.212-.1l-.766-.621a.475.475,0,0,1-.157-.212c-.026-.077-.056-.157-.083-.238q-.628-1.8-1.29-3.612t-1.225-3.626a.377.377,0,0,1-.024-.2.439.439,0,0,1,.1-.179l.764-.941c.1-.123.177-.169.228-.137a1.561,1.561,0,0,1,.185.133l4.972,4.041.681-.838c.083-.1.145-.157.185-.163s.123.042.246.141l.838.681c.123.1.181.171.173.218a.5.5,0,0,1-.117.2Zm-3.892,2.082,1.479-1.82-2.957-2.405Z" transform="translate(111.002 54.461)" fill="#fff"/>
      <path id="패스_77" data-name="패스 77" d="M120.306,60.568l1.57,1.278c.121.1.191.173.2.222s-.028.133-.123.248l-.691.849c-.093.115-.171.171-.228.161a.642.642,0,0,1-.25-.143l-1.57-1.278-2.534,3.116c-.077.1-.143.151-.193.159s-.119-.02-.212-.1l-.766-.621a.475.475,0,0,1-.157-.212c-.026-.077-.056-.157-.083-.238q-.628-1.8-1.29-3.612t-1.225-3.626a.377.377,0,0,1-.024-.2.439.439,0,0,1,.1-.179l.764-.941c.1-.123.177-.169.228-.137a1.561,1.561,0,0,1,.185.133l4.972,4.041.681-.838c.083-.1.145-.157.185-.163s.123.042.246.141l.838.681c.123.1.181.171.173.218a.5.5,0,0,1-.117.2Zm-3.892,2.082,1.479-1.82-2.957-2.405Z" transform="translate(111.002 54.461)" fill="none" stroke="#1a1818" stroke-width="0.4"/>
      <path id="패스_78" data-name="패스 78" d="M119.943,58.657a1.106,1.106,0,0,1-.782.478,1.322,1.322,0,0,1-1.447-1.026,1.167,1.167,0,0,1,.974-1.375,1.321,1.321,0,0,1,1.449,1.028,1.111,1.111,0,0,1-.195.9" transform="translate(115.889 55.854)" fill="#fff"/>
      <path id="패스_79" data-name="패스 79" d="M119.943,58.657a1.106,1.106,0,0,1-.782.478,1.322,1.322,0,0,1-1.447-1.026,1.167,1.167,0,0,1,.974-1.375,1.321,1.321,0,0,1,1.449,1.028A1.111,1.111,0,0,1,119.943,58.657Z" transform="translate(115.889 55.854)" fill="none" stroke="#1a1818" stroke-width="0.4"/>
      <path id="패스_80" data-name="패스 80" d="M124.3,58.7c-.05.081-.1.127-.155.135a.365.365,0,0,1-.222-.073l-6.758-4.118.276,1.111c.046.191,0,.292-.135.3l-1.2.181a.163.163,0,0,1-.171-.052.642.642,0,0,1-.081-.226l-.649-2.771a.468.468,0,0,1,.058-.335l.453-.742c.1-.165.181-.25.236-.256a.9.9,0,0,1,.383.171l8.524,5.2a.366.366,0,0,1,.163.159.239.239,0,0,1-.042.2Z" transform="translate(113.432 51.06)" fill="#fff"/>
      <path id="패스_81" data-name="패스 81" d="M124.3,58.7c-.05.081-.1.127-.155.135a.365.365,0,0,1-.222-.073l-6.758-4.118.276,1.111c.046.191,0,.292-.135.3l-1.2.181a.163.163,0,0,1-.171-.052.642.642,0,0,1-.081-.226l-.649-2.771a.468.468,0,0,1,.058-.335l.453-.742c.1-.165.181-.25.236-.256a.9.9,0,0,1,.383.171l8.524,5.2a.366.366,0,0,1,.163.159.239.239,0,0,1-.042.2Z" transform="translate(113.432 51.06)" fill="none" stroke="#1a1818" stroke-width="0.4"/>
      <path id="패스_82" data-name="패스 82" d="M125.425,50.758a3.5,3.5,0,0,1,1.088.784,2.914,2.914,0,0,1,.651,1.105,3.348,3.348,0,0,1,.125,1.371,4.8,4.8,0,0,1-.466,1.578,7.41,7.41,0,0,1-.6,1.028,5.171,5.171,0,0,1-.742.873.362.362,0,0,1-.246.131.467.467,0,0,1-.23-.093l-.947-.593c-.109-.071-.167-.133-.171-.189s.044-.139.145-.246c.157-.159.327-.343.51-.56a4.146,4.146,0,0,0,.433-.6,3.989,3.989,0,0,0,.371-.816,2.319,2.319,0,0,0,.121-.83,1.5,1.5,0,0,0-.224-.74,1.48,1.48,0,0,0-.661-.55,1.322,1.322,0,0,0-.576-.127,1.438,1.438,0,0,0-.629.149,2.16,2.16,0,0,0-.613.453,2.905,2.905,0,0,0-.526.794l-.3.643c-.048.1-.1.161-.143.173a.37.37,0,0,1-.22-.054l-1.028-.486c-.119-.054-.185-.1-.2-.145a.319.319,0,0,1,.05-.216l.29-.619a2.452,2.452,0,0,0,.187-.589,2.255,2.255,0,0,0,.034-.683,1.766,1.766,0,0,0-.2-.647,1.047,1.047,0,0,0-.5-.458,1.223,1.223,0,0,0-.951-.064,1.411,1.411,0,0,0-.778.806,3.873,3.873,0,0,0-.3.951,5.633,5.633,0,0,0-.1,1,.516.516,0,0,1-.067.29c-.044.058-.127.067-.25.026l-1.1-.369a.3.3,0,0,1-.181-.107.593.593,0,0,1-.034-.286,8.6,8.6,0,0,1,.131-1.2,4.5,4.5,0,0,1,.351-1.115,4.115,4.115,0,0,1,.645-.978,3.208,3.208,0,0,1,.9-.726,2.571,2.571,0,0,1,1.107-.3,2.6,2.6,0,0,1,1.254.28,2.2,2.2,0,0,1,.645.454,2.879,2.879,0,0,1,.47.645,3.034,3.034,0,0,1,.28.772,3.314,3.314,0,0,1,.071.842,3.346,3.346,0,0,1,1.633-.9,2.344,2.344,0,0,1,1.483.137" transform="translate(114.669 47.778)" fill="#fff"/>
      <path id="패스_83" data-name="패스 83" d="M125.425,50.758a3.5,3.5,0,0,1,1.088.784,2.914,2.914,0,0,1,.651,1.105,3.348,3.348,0,0,1,.125,1.371,4.8,4.8,0,0,1-.466,1.578,7.41,7.41,0,0,1-.6,1.028,5.171,5.171,0,0,1-.742.873.362.362,0,0,1-.246.131.467.467,0,0,1-.23-.093l-.947-.593c-.109-.071-.167-.133-.171-.189s.044-.139.145-.246c.157-.159.327-.343.51-.56a4.146,4.146,0,0,0,.433-.6,3.989,3.989,0,0,0,.371-.816,2.319,2.319,0,0,0,.121-.83,1.5,1.5,0,0,0-.224-.74,1.48,1.48,0,0,0-.661-.55,1.322,1.322,0,0,0-.576-.127,1.438,1.438,0,0,0-.629.149,2.16,2.16,0,0,0-.613.453,2.905,2.905,0,0,0-.526.794l-.3.643c-.048.1-.1.161-.143.173a.37.37,0,0,1-.22-.054l-1.028-.486c-.119-.054-.185-.1-.2-.145a.319.319,0,0,1,.05-.216l.29-.619a2.452,2.452,0,0,0,.187-.589,2.255,2.255,0,0,0,.034-.683,1.766,1.766,0,0,0-.2-.647,1.047,1.047,0,0,0-.5-.458,1.223,1.223,0,0,0-.951-.064,1.411,1.411,0,0,0-.778.806,3.873,3.873,0,0,0-.3.951,5.633,5.633,0,0,0-.1,1,.516.516,0,0,1-.067.29c-.044.058-.127.067-.25.026l-1.1-.369a.3.3,0,0,1-.181-.107.593.593,0,0,1-.034-.286,8.6,8.6,0,0,1,.131-1.2,4.5,4.5,0,0,1,.351-1.115,4.115,4.115,0,0,1,.645-.978,3.208,3.208,0,0,1,.9-.726,2.571,2.571,0,0,1,1.107-.3,2.6,2.6,0,0,1,1.254.28,2.2,2.2,0,0,1,.645.454,2.879,2.879,0,0,1,.47.645,3.034,3.034,0,0,1,.28.772,3.314,3.314,0,0,1,.071.842,3.346,3.346,0,0,1,1.633-.9A2.344,2.344,0,0,1,125.425,50.758Z" transform="translate(114.669 47.778)" fill="none" stroke="#1a1818" stroke-width="0.4"/>
      <path id="패스_84" data-name="패스 84" d="M43.768,66.269l-6.5,11.065-1.85-.532.47-15.2,1.647.478-.522,12.938,6.559-11.19,1.7.492L44.833,77.4l6.48-11.337,1.572.456L45.222,79.64l-1.885-.546Z" transform="translate(34.876 60.655)" fill="#1a1818"/>
      <path id="패스_85" data-name="패스 85" d="M43.337,79.094l1.885.546,7.663-13.123-1.57-.454L44.833,77.4l.443-13.079-1.7-.494-6.561,11.19.522-12.938L35.888,61.6l-.47,15.2,1.85.532,6.5-11.065Z" transform="translate(34.876 60.655)" fill="none" stroke="#1a1818" stroke-linecap="round" stroke-linejoin="round" stroke-width="0.306"/>
      <path id="패스_86" data-name="패스 86" d="M52.757,80.207l-9-1.546,2.5-14.542,8.995,1.546L55.009,67.1,47.7,65.849,46.933,70.3l6.792,1.169-.244,1.421-6.79-1.169-.99,5.756,7.31,1.254Z" transform="translate(43.09 63.138)" fill="#1a1818"/>
      <path id="패스_87" data-name="패스 87" d="M53.01,78.728,45.7,77.474l.988-5.756,6.79,1.169.246-1.421L46.935,70.3l.766-4.448,7.308,1.256.248-1.441-9-1.546-2.5,14.542,9,1.546Z" transform="translate(43.09 63.137)" fill="none" stroke="#1a1818" stroke-linecap="round" stroke-linejoin="round" stroke-width="0.306"/>
      <path id="패스_88" data-name="패스 88" d="M54.856,80.1l-4.962-.441L51.2,64.985l4.9.437a5.7,5.7,0,0,1,1.788.423,4.166,4.166,0,0,1,1.268.828,2.9,2.9,0,0,1,.718,1.117,3.064,3.064,0,0,1,.157,1.3,3.314,3.314,0,0,1-.883,2.044,3.65,3.65,0,0,1-2.028,1.06l0,.038a4.194,4.194,0,0,1,1.33.53,3.679,3.679,0,0,1,.976.877,3.387,3.387,0,0,1,.578,1.175,3.881,3.881,0,0,1,.119,1.417,4.462,4.462,0,0,1-.431,1.546,3.844,3.844,0,0,1-1.026,1.306,4.474,4.474,0,0,1-1.618.842,5.836,5.836,0,0,1-2.2.177m.083-7.282-2.7-.24-.514,5.777,3.045.272a3.386,3.386,0,0,0,2.463-.562,2.741,2.741,0,0,0,1.012-2.022,2.709,2.709,0,0,0-.683-2.229,4.056,4.056,0,0,0-2.626-1m.593-6-2.755-.246-.409,4.595,2.56.228a4.034,4.034,0,0,0,2.288-.343,2.087,2.087,0,0,0,.992-1.806,1.9,1.9,0,0,0-.572-1.731,3.745,3.745,0,0,0-2.106-.7" transform="translate(49.13 63.991)" fill="#1a1818"/>
      <path id="패스_89" data-name="패스 89" d="M57.052,79.958a4.5,4.5,0,0,0,1.621-.838A3.871,3.871,0,0,0,59.7,77.81a4.4,4.4,0,0,0,.433-1.54,3.965,3.965,0,0,0-.117-1.419,3.457,3.457,0,0,0-.582-1.177,3.722,3.722,0,0,0-.976-.879,4.279,4.279,0,0,0-1.332-.528l0-.04a3.623,3.623,0,0,0,2.03-1.058,3.294,3.294,0,0,0,.885-2.042,3.069,3.069,0,0,0-.157-1.3,2.877,2.877,0,0,0-.72-1.119,4.158,4.158,0,0,0-1.264-.828,5.929,5.929,0,0,0-1.79-.423l-4.9-.437L49.9,79.694l4.964.443A5.684,5.684,0,0,0,57.052,79.958Zm.518-6.1a2.7,2.7,0,0,1,.683,2.229,2.756,2.756,0,0,1-1.014,2.02,3.38,3.38,0,0,1-2.461.562l-3.043-.272.512-5.779,2.7.24A4.066,4.066,0,0,1,57.57,73.853Zm.073-6.305a1.9,1.9,0,0,1,.568,1.729,2.092,2.092,0,0,1-.992,1.808,4.029,4.029,0,0,1-2.284.341L52.376,71.2l.407-4.595,2.755.246A3.75,3.75,0,0,1,57.643,67.547Z" transform="translate(49.135 64.022)" fill="none" stroke="#1a1818" stroke-linecap="round" stroke-linejoin="round" stroke-width="0.306"/>
      <path id="패스_90" data-name="패스 90" d="M64.583,70.562a6.138,6.138,0,0,0,.808.77c.308.25.629.484.967.709s.671.417,1.012.6.673.341.994.472l-.9,1.139A14.416,14.416,0,0,1,65.494,73.1a12.752,12.752,0,0,1-1.764-1.5,12.962,12.962,0,0,1-2.348,2,13.6,13.6,0,0,1-2.37,1.278l-1.04-1.044a12.1,12.1,0,0,0,2.209-1.119,12.415,12.415,0,0,0,1.907-1.485,9.74,9.74,0,0,0,1.439-1.711,5.768,5.768,0,0,0,.81-1.806c-.607.044-1.234.077-1.864.1s-1.274.046-1.907.066l-1.606.048-.038-1.306,2.7-.077,2.241-.065c.752-.028,1.538-.06,2.364-.107a7.2,7.2,0,0,1-.528,2.211,9.861,9.861,0,0,1-1.113,1.983m7.024,10.823-10.086.3-.179-6.157,1.5-.04.04,1.391,7.087-.21-.042-1.483,1.5-.046Zm-1.538-1.278L70,77.919l-7.089.21.069,2.185ZM66.929,70.6l-.04-1.36,2.838-.087-.105-3.594,1.514-.042.26,8.709-1.518.046-.111-3.755Z" transform="translate(57.085 64.515)" fill="#1a1818"/>
      <path id="패스_91" data-name="패스 91" d="M62.983,80.313l-.067-2.183L70,77.917l.066,2.189Zm8.439-5.172-1.5.044.042,1.483-7.087.212-.04-1.393-1.5.042.179,6.155,10.086-.3Zm-1.655-4.624.111,3.753,1.518-.044-.262-8.709-1.51.042.1,3.594-2.838.087.04,1.36ZM65.7,68.579a7.22,7.22,0,0,0,.526-2.211q-1.235.068-2.362.1t-2.241.069l-2.7.077.04,1.306,1.6-.05c.633-.018,1.27-.04,1.905-.066s1.258-.056,1.866-.1a5.788,5.788,0,0,1-.81,1.806,9.812,9.812,0,0,1-1.439,1.711,12.442,12.442,0,0,1-1.907,1.485,12.15,12.15,0,0,1-2.209,1.117l1.04,1.046a13.414,13.414,0,0,0,2.37-1.28,12.906,12.906,0,0,0,2.348-2,12.368,12.368,0,0,0,1.764,1.5,13.9,13.9,0,0,0,1.969,1.157l.9-1.137a10.354,10.354,0,0,1-.994-.472c-.341-.185-.679-.385-1.012-.607a11.371,11.371,0,0,1-.969-.7,5.885,5.885,0,0,1-.806-.772A9.792,9.792,0,0,0,65.7,68.579Z" transform="translate(57.085 64.515)" fill="none" stroke="#1a1818" stroke-linecap="round" stroke-linejoin="round" stroke-width="0.306"/>
      <path id="패스_92" data-name="패스 92" d="M76.674,71.862q-.018-1.334-.085-2.729c-.046-.931-.123-1.834-.238-2.707l-8.882,1.2-.181-1.31L77.71,64.908c.071.617.131,1.236.187,1.862s.1,1.223.137,1.808.069,1.131.089,1.657.044,1,.052,1.425l2.957-.4.177,1.294L66.082,74.617l-.175-1.3Zm3.439,8.185L69.537,81.478l-.72-5.313,1.5-.2.546,4.007,9.07-1.229Z" transform="translate(64.898 63.915)" fill="#1a1818"/>
      <path id="패스_93" data-name="패스 93" d="M79.935,78.737l-9.07,1.231-.54-4.007-1.508.2.72,5.311,10.576-1.429ZM65.907,73.319l.175,1.3,15.227-2.062-.177-1.292-2.955.4c-.01-.427-.028-.9-.054-1.427s-.05-1.08-.089-1.657-.083-1.185-.137-1.808-.115-1.244-.187-1.86L67.288,66.315l.181,1.31,8.882-1.2c.115.875.193,1.778.238,2.709s.073,1.842.085,2.729Z" transform="translate(64.898 63.915)" fill="none" stroke="#1a1818" stroke-linecap="round" stroke-linejoin="round" stroke-width="0.306"/>
      <path id="패스_94" data-name="패스 94" d="M77.994,65.026a10.422,10.422,0,0,1,.3,1.5,10.275,10.275,0,0,1,.089,1.421,9.272,9.272,0,0,0,5.174,2.991l-.647,1.272a9.894,9.894,0,0,1-2.576-.988,9.43,9.43,0,0,1-2.122-1.612,8.567,8.567,0,0,1-1.016,2.7,10.364,10.364,0,0,1-1.83,2.29l-1.26-.72A9,9,0,0,0,76.637,70a7.729,7.729,0,0,0-.149-4.6Zm10.376,10.5a2.417,2.417,0,0,1-.024,1.286,2.872,2.872,0,0,1-.73,1.2,5.627,5.627,0,0,1-1.465,1.04,10.24,10.24,0,0,1-2.191.8,10.058,10.058,0,0,1-2.306.331,5.472,5.472,0,0,1-1.778-.234,3,3,0,0,1-1.217-.722,2.448,2.448,0,0,1-.625-1.121,2.473,2.473,0,0,1,.018-1.29,2.962,2.962,0,0,1,.734-1.209,5.451,5.451,0,0,1,1.451-1.05,9.8,9.8,0,0,1,2.189-.8,10.053,10.053,0,0,1,2.31-.335,5.433,5.433,0,0,1,1.784.23,2.941,2.941,0,0,1,1.219.73,2.472,2.472,0,0,1,.631,1.133m-1.538.385a1.26,1.26,0,0,0-.387-.627,1.915,1.915,0,0,0-.814-.411,4.1,4.1,0,0,0-1.25-.125,8.191,8.191,0,0,0-1.673.256,7.336,7.336,0,0,0-1.564.56,4.284,4.284,0,0,0-1.038.7,2.022,2.022,0,0,0-.522.752,1.29,1.29,0,0,0-.042.738,1.2,1.2,0,0,0,.385.609,1.85,1.85,0,0,0,.812.409,4.466,4.466,0,0,0,1.234.105,7.793,7.793,0,0,0,1.643-.262,8.015,8.015,0,0,0,1.6-.554,4.58,4.58,0,0,0,1.048-.681,1.935,1.935,0,0,0,.522-.742,1.288,1.288,0,0,0,.048-.724m-5.273-7.272-.331-1.32,3.164-.8-.836-3.334,1.469-.373,2.362,9.374-1.473.373-1.189-4.724Z" transform="translate(72.976 61.858)" fill="#1a1818"/>
      <path id="패스_95" data-name="패스 95" d="M86.781,76.637a1.928,1.928,0,0,1-.52.742,4.665,4.665,0,0,1-1.05.681,8.12,8.12,0,0,1-1.6.554,7.852,7.852,0,0,1-1.643.262,4.371,4.371,0,0,1-1.234-.107,1.868,1.868,0,0,1-.814-.407,1.2,1.2,0,0,1-.383-.609,1.306,1.306,0,0,1,.04-.738,2.022,2.022,0,0,1,.522-.752,4.28,4.28,0,0,1,1.04-.695,7.36,7.36,0,0,1,1.564-.562,7.888,7.888,0,0,1,1.673-.256,4.142,4.142,0,0,1,1.248.123,1.947,1.947,0,0,1,.816.411,1.2,1.2,0,0,1,.337,1.354Zm.955-2.243a2.933,2.933,0,0,0-1.217-.73,5.438,5.438,0,0,0-1.786-.23,9.96,9.96,0,0,0-2.31.335,9.741,9.741,0,0,0-2.187.8,5.493,5.493,0,0,0-1.453,1.048,2.988,2.988,0,0,0-.732,1.211,2.479,2.479,0,0,0,.607,2.411,2.99,2.99,0,0,0,1.217.722,5.467,5.467,0,0,0,1.776.234,10.074,10.074,0,0,0,2.308-.331,10.433,10.433,0,0,0,2.191-.8,5.587,5.587,0,0,0,1.463-1.044,2.839,2.839,0,0,0,.732-1.2,2.4,2.4,0,0,0,.022-1.286A2.427,2.427,0,0,0,87.736,74.395Zm-3.017-6.553,1.193,4.722,1.469-.371L85.023,62.82l-1.469.371.834,3.334-3.162.8.331,1.32ZM76.487,65.4a7.714,7.714,0,0,1,.149,4.6,9.017,9.017,0,0,1-2.525,3.876l1.252.722A10.224,10.224,0,0,0,77.2,72.309a8.556,8.556,0,0,0,1.016-2.7,9.488,9.488,0,0,0,2.122,1.612,9.7,9.7,0,0,0,2.578.988l.645-1.272a9.9,9.9,0,0,1-2.87-1.088,9.74,9.74,0,0,1-2.3-1.9,10.643,10.643,0,0,0-.089-1.423,10.342,10.342,0,0,0-.3-1.5Z" transform="translate(72.977 61.859)" fill="none" stroke="#1a1818" stroke-linecap="round" stroke-linejoin="round" stroke-width="0.306"/>
    </g>
  </g>
</svg>
