<svg xmlns="http://www.w3.org/2000/svg" xmlns:xlink="http://www.w3.org/1999/xlink" width="143.666" height="28.162" viewBox="0 0 143.666 28.162">
  <defs>
    <clipPath id="clip-path">
      <rect id="사각형_45980" data-name="사각형 45980" width="143.666" height="28.162" transform="translate(0 0)" fill="#fff"/>
    </clipPath>
  </defs>
  <g id="그룹_95947" data-name="그룹 95947" transform="translate(55 181.999)">
    <g id="그룹_95946" data-name="그룹 95946" transform="translate(-55 -181.999)" clip-path="url(#clip-path)">
      <path id="패스_67219" data-name="패스 67219" d="M22.37,4.6V2.534h3.049V4.6h4.072v1.96H27.357a7.441,7.441,0,0,1,1.59,4.683c-.023,3.681-2.092,6.426-5.054,6.426-3.049.022-5.074-2.745-5.074-6.426a7.3,7.3,0,0,1,1.569-4.683h-2V4.6Zm1.524,2c-1.2,0-2.155,1.83-2.134,4.639-.022,2.679.915,4.464,2.112,4.464,1.22,0,2.135-1.742,2.135-4.464,0-2.941-.872-4.639-2.114-4.639m10.5,3.877v11.76H31.451V2.534h2.941V8.523h2.831v1.96Z" transform="translate(12.262 1.689)" fill="#fff"/>
      <path id="패스_67220" data-name="패스 67220" d="M34.532,14.622h4.944a6.755,6.755,0,0,0,3.572-.588V2.535h2.941V8.524H48.82v1.96H45.989v11.76H43.049V15.994a9.379,9.379,0,0,1-3.637.588H32.9a2.509,2.509,0,0,1-2.265-2.7V3.405h2.941V13.817c0,.5.327.805.959.805" transform="translate(20.431 1.69)" fill="#fff"/>
      <path id="패스_67221" data-name="패스 67221" d="M54.181,10.4a13.823,13.823,0,0,0,.457-3.944v-1.7H44.293V2.8H57.578V6.39a13.73,13.73,0,0,1-.543,4.007h2.7v1.959H42.094V10.4Zm3.376,3.9v7.993H46.275c-1.089,0-2-1.219-2-2.7V14.295Zm-10.345,1.96v3.289c0,.567.348.785.85.785h6.555V16.255Z" transform="translate(28.075 1.864)" fill="#fff"/>
      <path id="패스_67222" data-name="패스 67222" d="M67.529,16.821a4.332,4.332,0,0,1,.3,1.59c0,2.984-2.787,4.7-5.488,4.7-2.941,0-5.511-1.764-5.511-4.7a4.156,4.156,0,0,1,.328-1.655v-4.4H53.523V10.4h4.509a4.9,4.9,0,0,1-1.11-3.157,5.461,5.461,0,0,1,10.889,0A4.871,4.871,0,0,1,66.679,10.4h4.487v1.96H67.529Zm-5.184-1.2a2.559,2.559,0,0,0-2.222,1.307,3.112,3.112,0,0,0-.348,1.48,2.56,2.56,0,0,0,2.549,2.744,2.586,2.586,0,0,0,2.57-2.744,2.652,2.652,0,0,0-2.549-2.787m.022-11.457c-1.46,0-2.527,1.374-2.505,3.072a2.779,2.779,0,0,0,2.505,3.071c1.394,0,2.484-1.329,2.505-3.071-.022-1.655-1.155-3.072-2.505-3.072m-.022,9.5a6.376,6.376,0,0,1,2.222.413v-1.72H60.123v1.7a6.271,6.271,0,0,1,2.222-.392" transform="translate(35.698 1.471)" fill="#fff"/>
      <path id="패스_67223" data-name="패스 67223" d="M75.845,17.018a14.278,14.278,0,0,0,.868-5.706V5.147H66.369V3.187H79.654v8.1a14,14,0,0,1-.979,5.728h3.136v1.96H64.17v-1.96Z" transform="translate(42.799 2.125)" fill="#fff"/>
      <path id="패스_67224" data-name="패스 67224" d="M75.6,12.14H93.243V14.1H85.9v1.959H82.941V14.1H75.6ZM91.3,10.9H80.065A2.557,2.557,0,0,1,77.8,8.241V5.8H88.145V4.625H77.8V2.665H91.085V5.911a1.737,1.737,0,0,1-1.437,1.852H80.74V8.2c0,.435.327.74.894.74H91.3ZM80.74,16.931h7.4V15.189h2.941v7.188H80.043A2.534,2.534,0,0,1,77.8,19.7V15.189H80.74Zm0,1.96v.61a.82.82,0,0,0,.85.915h6.555V18.891Z" transform="translate(50.423 1.777)" fill="#fff"/>
      <path id="패스_67225" data-name="패스 67225" d="M6.485,2.7a2.634,2.634,0,0,0,5.268,0,1.545,1.545,0,0,0-.14-.633c-.228-.478-.48-.71-.458-1.284C11.191.01,10.2,0,9.664,0A3.858,3.858,0,0,0,7.939.345,2.628,2.628,0,0,0,6.485,2.639Z" transform="translate(4.325 -0.001)" fill="#fff"/>
      <path id="패스_67226" data-name="패스 67226" d="M26.815,3.687c-.19-.29-.57-.292-1.277-.16a55.973,55.973,0,0,1-9.05.992,59.237,59.237,0,0,1-7.223-.14c-2.035-.182-5.886-.8-6.745-.887a3.077,3.077,0,0,0-2.05.33A1.6,1.6,0,0,0,.383,6,4.917,4.917,0,0,0,3.475,7.937a45.478,45.478,0,0,0,9.583.205,49.527,49.527,0,0,0,8.465-1.434,27.049,27.049,0,0,0,4.314-1.627c.533-.3,1.294-.875.977-1.4" transform="translate(0 2.295)" fill="#fff"/>
      <path id="패스_67227" data-name="패스 67227" d="M13.143,7.725a5.743,5.743,0,0,0-5.616.033,5.806,5.806,0,0,0-2.115,8.028c1.367,2.142,3.2,1.63,3.716,1.087a1.434,1.434,0,0,0,.06-1.932A2.816,2.816,0,0,1,8.405,13.1a2.056,2.056,0,0,1,3.621-1.335,3.27,3.27,0,0,1,.57,2.287,26.2,26.2,0,0,1-2.124,8.472c-.08.2-.217.705.163.91.29.145.632.013.967-.283a15.262,15.262,0,0,0,3.274-4.663A13.344,13.344,0,0,0,16.1,11.83a5.752,5.752,0,0,0-2.956-4.106" transform="translate(3.063 4.673)" fill="#fff"/>
    </g>
  </g>
</svg>
